<svg width="75" height="75" viewBox="0 0 75 75" fill="white" xmlns="http://www.w3.org/2000/svg">
<path d="M50.3681 42.4226C48.0523 42.4226 46.0097 43.5258 44.6751 45.2154L32.297 38.8852C32.459 38.2808 32.5755 37.6563 32.5755 36.9991C32.5755 36.2836 32.4372 35.61 32.2442 34.9546L44.5677 28.6536C45.8949 30.4196 47.9904 31.5738 50.3699 31.5738C54.4007 31.5738 57.6613 28.3132 57.6613 24.286C57.6614 20.2625 54.4007 17 50.37 17C46.3483 17 43.084 20.2625 43.084 24.2859C43.084 24.945 43.2006 25.5713 43.3644 26.1775L30.988 32.5077C29.6517 30.8164 27.6053 29.7095 25.2859 29.7095C21.2588 29.7095 18 32.9738 18 36.9991C18 41.0244 21.2589 44.2869 25.2859 44.2869C27.6691 44.2869 29.7628 43.129 31.0954 41.3612L43.4134 47.6622C43.2204 48.3158 43.0803 48.9949 43.0803 49.7122C43.0803 53.7375 46.3446 57 50.3662 57C54.397 57 57.6577 53.7375 57.6577 49.7122C57.6595 45.6833 54.3989 42.4226 50.3681 42.4226Z"/>
</svg>
