<svg width="200" height="200" viewBox="0 0 200 200" fill="none" xmlns="http://www.w3.org/2000/svg">
  <path d="M125.057 97.3958C127.939 94.8108 147.723 77.0638 150.352 74.706C151.899 76.2881 154.445 76.1789 155.857 74.5223C164.498 64.3874 165.198 64.1197 165.399 61.4529C165.704 57.389 162.183 54.1637 158.228 54.693C158.206 54.6961 158.183 54.6974 158.16 54.7004C156.106 54.9999 155.413 55.7994 145.26 62.7099C143.182 64.1241 143.282 66.9628 144.482 68.1632L119.187 90.8526C116.538 90.8526 120.396 89.821 67.6002 108.126C63.6703 109.489 63.884 115.244 68.0424 116.194C79.625 118.835 75.5606 117.908 81.8839 119.351C87.0391 120.527 91.2636 124.557 92.471 130.108C92.6656 131.002 92.5446 130.173 94.3239 145.492C94.8101 149.675 100.496 150.607 102.296 146.805L114.709 120.598C124.639 99.6321 125.024 99.4019 125.057 97.3958ZM80.6234 113.892C79.2672 115.109 77.1836 114.996 75.9671 113.639C74.754 112.284 74.8672 110.2 76.223 108.984C77.5758 107.77 79.6598 107.883 80.8763 109.236C82.0924 110.592 81.9792 112.676 80.6234 113.892ZM87.577 112.719C85.8547 110.803 86.0149 107.85 87.9379 106.131C89.8547 104.409 92.807 104.569 94.5228 106.489C96.2482 108.406 96.088 111.358 94.1685 113.078C92.2517 114.799 89.2989 114.639 87.577 112.719Z" fill="#EEEEEE"/>
  <path d="M84.149 132.388C83.8848 130.112 82.206 128.241 79.9723 127.731C78.2748 127.344 79.5409 127.633 73.7934 126.322V126.4L57.0527 188.429C55.7321 193.322 58.6283 198.36 63.5218 199.681C68.4163 201.002 73.4535 198.104 74.774 193.211L86.5507 149.576C86.1729 148.595 85.9113 147.559 85.7864 146.484L84.149 132.388Z" fill="#EEEEEE"/>
  <path d="M119.107 131.393C109.232 152.242 109.94 150.837 109.337 151.796L133.058 195.22C135.489 199.67 141.066 201.303 145.512 198.874C149.96 196.444 151.597 190.869 149.167 186.42L119.107 131.393Z" fill="#EEEEEE"/>
  <path d="M73.7935 96.8822C116.891 81.9391 113.592 83.0716 114.304 82.8596V69.4377L119.977 78.5976L131.654 68.1237C129.083 63.3533 125.177 54.1416 114.703 54.1416C111.289 54.1416 85.9815 54.1416 82.6074 54.1416L43.2305 2.98317C40.6542 -0.363937 35.852 -0.98809 32.5049 1.58731C29.1578 4.16357 28.5328 8.96617 31.1095 12.3133L73.794 67.7381V96.8822H73.7935Z" fill="#EEEEEE"/>
  <path d="M94.1323 49.0892C102.887 49.0892 109.983 41.9925 109.983 33.2382C109.983 24.4839 102.887 17.3871 94.1323 17.3871C85.378 17.3871 78.2812 24.4839 78.2812 33.2382C78.2812 41.9925 85.378 49.0892 94.1323 49.0892Z" fill="#EEEEEE"/>
  <path d="M170.112 74.0761C169.887 73.3749 169.565 72.7325 169.174 72.1501L162.397 80.0987C159.877 83.0541 156.153 84.6049 152.402 84.4125L146.53 89.68L165.168 83.697C169.189 82.4052 171.402 78.0983 170.112 74.0761Z" fill="#EEEEEE"/>
</svg>
