
<svg
   width="400mm"
   height="400mm"
   viewBox="0 0 399.99995 399.99998"
   version="1.1"
   id="svg3908"
   sodipodidocname="loadingCircle.svg">
   <g
      inkscapelabel="Layer 1"
      inkscapegroupmode="layer"
      id="layer1"
      transform="translate(0,103)">
      <path
         style="fill:#ffffa7;fill-opacity:0;stroke:#FD9B4A;stroke-width:0.30000001;stroke-miterlimit:4;stroke-dasharray:none"
         inkscapetransform-center-y="-0.55383602"
         inkscapetransform-center-x="14.388432"
         d="M 151.94642,129.93452 54.156211,159.62877 140.09625,143.57953 37.920947,145.78915 125.00413,153.5214 26.021615,128.08252 107.78938,159.0228 19.340734,107.8221 89.728741,159.67571 18.373795,86.510514 72.161687,155.43171 23.192509,65.72834 56.391085,146.60555 33.439497,47.016898 43.58657,133.85183 48.354784,31.763932 34.697793,118.11644 66.832174,21.100683 30.383994,100.56639 87.501281,15.817997 30.965108,82.503298 108.82917,16.307666 36.398037,65.266817 129.23406,22.533373 46.279845,50.135299 147.2026,34.033386 59.877643,38.230978 161.40215,49.954802 76.182945,30.436744 170.7796,69.116802 93.986462,27.330659 174.63946,90.098228 111.96779,29.143088 172.69547,111.34298 128.79333,35.73961 165.0918,131.27544 143.21521,46.630993 152.39238,148.41731 154.16384,61.009471 135.53907,161.49724 160.82719,77.808659 115.7818,169.54517 162.71108,95.782638 94.585878,171.96421 159.67578,113.59836 73.523311,168.57495 Z"
         inkscaperandomized="0"
         inkscaperounded="0"
         inkscapeflatsided="false"
         sodipodiarg2="2.1401153"
         sodipodiarg1="0.57852421"
         sodipodir2="78.336044"
         sodipodir1="66.361465"
         sodipodicy="93.648804"
         sodipodicx="96.383926"
         sodipodisides="23"
         id="path4770"
         sodipoditype="star"
         transform="matrix(2.5338709,0.33475705,-0.33434749,2.5369752,-12.691065,-172.1373)" />
      <path
         sodipoditype="star"
         id="path3910"
         sodipodisides="23"
         sodipodicx="96.383926"
         sodipodicy="93.648804"
         sodipodir1="66.361465"
         sodipodir2="78.336044"
         sodipodiarg1="0.57852421"
         sodipodiarg2="2.1401153"
         inkscapeflatsided="false"
         inkscaperounded="0"
         inkscaperandomized="0"
         d="M 151.94642,129.93452 54.156211,159.62877 140.09625,143.57953 37.920947,145.78915 125.00413,153.5214 26.021615,128.08252 107.78938,159.0228 19.340734,107.8221 89.728741,159.67571 18.373795,86.510514 72.161687,155.43171 23.192509,65.72834 56.391085,146.60555 33.439497,47.016898 43.58657,133.85183 48.354784,31.763932 34.697793,118.11644 66.832174,21.100683 30.383994,100.56639 87.501281,15.817997 30.965108,82.503298 108.82917,16.307666 36.398037,65.266817 129.23406,22.533373 46.279845,50.135299 147.2026,34.033386 59.877643,38.230978 161.40215,49.954802 76.182945,30.436744 170.7796,69.116802 93.986462,27.330659 174.63946,90.098228 111.96779,29.143088 172.69547,111.34298 128.79333,35.73961 165.0918,131.27544 143.21521,46.630993 152.39238,148.41731 154.16384,61.009471 135.53907,161.49724 160.82719,77.808659 115.7818,169.54517 162.71108,95.782638 94.585878,171.96421 159.67578,113.59836 73.523311,168.57495 Z"
         inkscapetransform-center-x="13.69649"
         inkscapetransform-center-y="2.6112308"
         style="fill:#ffffa7;fill-opacity:0;stroke:#880FDF;stroke-width:0.30000001;stroke-miterlimit:4;stroke-dasharray:none;stroke-opacity:1"
         transform="matrix(2.5560983,0,0,2.5582849,-46.662964,-143.21914)" />
   </g>
</svg>