<svg width="120" height="39" viewBox="0 0 120 39" fill="none" xmlns="http://www.w3.org/2000/svg">
<rect width="120" height="39" rx="10" fill="white"/>
<path d="M41.0859 23.272C39.7525 23.272 38.6325 23.0107 37.7259 22.488C36.8299 21.9653 36.1579 21.2293 35.7099 20.28C35.2619 19.3307 35.0379 18.2213 35.0379 16.952C35.0379 15.7573 35.2619 14.6853 35.7099 13.736C36.1579 12.7867 36.8352 12.0347 37.7419 11.48C38.6485 10.9253 39.7632 10.648 41.0859 10.648C41.6512 10.648 42.1525 10.696 42.5899 10.792C43.0379 10.8773 43.5179 11.0267 44.0299 11.24V12.936C43.1552 12.4987 42.1899 12.28 41.1339 12.28C40.2912 12.28 39.5499 12.4827 38.9099 12.888C38.2805 13.2827 37.7952 13.832 37.4539 14.536C37.1232 15.24 36.9579 16.0453 36.9579 16.952C36.9685 17.88 37.1339 18.696 37.4539 19.4C37.7739 20.104 38.2432 20.6533 38.8619 21.048C39.4805 21.4427 40.2219 21.64 41.0859 21.64C41.6405 21.64 42.1845 21.56 42.7179 21.4C43.2512 21.24 43.8165 21.0107 44.4139 20.712L44.9899 22.296C44.3712 22.616 43.7205 22.856 43.0379 23.016C42.3552 23.1867 41.7045 23.272 41.0859 23.272ZM50.91 23.208C50.0673 23.208 49.454 23.0373 49.07 22.696C48.6967 22.344 48.51 21.7893 48.51 21.032V9.464H50.334V20.472C50.334 20.8773 50.398 21.16 50.526 21.32C50.654 21.4693 50.8993 21.544 51.262 21.544C51.582 21.544 51.8593 21.512 52.094 21.448V23.064C51.678 23.16 51.2833 23.208 50.91 23.208ZM59.4058 23.272C58.4351 23.272 57.6138 23.064 56.9418 22.648C56.2698 22.232 55.7631 21.672 55.4218 20.968C55.0804 20.2533 54.9098 19.448 54.9098 18.552C54.9098 17.6667 55.0804 16.8667 55.4218 16.152C55.7631 15.4373 56.2698 14.8773 56.9418 14.472C57.6138 14.056 58.4351 13.848 59.4058 13.848C60.3658 13.848 61.1818 14.056 61.8538 14.472C62.5258 14.8773 63.0271 15.4373 63.3578 16.152C63.6991 16.8667 63.8698 17.6667 63.8698 18.552C63.8698 19.448 63.6991 20.2533 63.3578 20.968C63.0271 21.672 62.5258 22.232 61.8538 22.648C61.1818 23.064 60.3658 23.272 59.4058 23.272ZM59.4058 21.656C60.2271 21.656 60.8564 21.3733 61.2938 20.808C61.7418 20.2427 61.9658 19.4907 61.9658 18.552C61.9658 17.624 61.7418 16.8773 61.2938 16.312C60.8564 15.7467 60.2271 15.464 59.4058 15.464C58.5738 15.464 57.9338 15.7467 57.4858 16.312C57.0378 16.8773 56.8138 17.624 56.8138 18.552C56.8138 19.4907 57.0378 20.2427 57.4858 20.808C57.9338 21.3733 58.5738 21.656 59.4058 21.656ZM70.5275 23.272C69.8555 23.272 69.2582 23.2133 68.7355 23.096C68.2235 22.9893 67.6795 22.8027 67.1035 22.536V20.808C68.1275 21.3947 69.2688 21.688 70.5275 21.688C71.0608 21.688 71.4448 21.5867 71.6795 21.384C71.9248 21.1707 72.0475 20.888 72.0475 20.536C72.0475 20.216 71.9568 19.976 71.7755 19.816C71.5942 19.656 71.3008 19.5227 70.8955 19.416L69.7275 19.144C68.9382 18.9627 68.3302 18.6693 67.9035 18.264C67.4875 17.8587 67.2795 17.272 67.2795 16.504C67.2795 15.6507 67.5515 14.9947 68.0955 14.536C68.6502 14.0773 69.4715 13.848 70.5595 13.848C71.5195 13.848 72.4955 14.04 73.4875 14.424V16.072C72.5915 15.6453 71.6368 15.432 70.6235 15.432C70.0902 15.432 69.7062 15.528 69.4715 15.72C69.2475 15.9013 69.1355 16.136 69.1355 16.424C69.1355 16.7333 69.2262 16.9627 69.4075 17.112C69.5888 17.2613 69.8608 17.384 70.2235 17.48L71.4075 17.752C72.2502 17.944 72.8742 18.2373 73.2795 18.632C73.6955 19.016 73.9035 19.6293 73.9035 20.472C73.9035 21.3787 73.5942 22.072 72.9755 22.552C72.3675 23.032 71.5515 23.272 70.5275 23.272ZM79.045 18.856C79.0877 19.72 79.333 20.408 79.781 20.92C80.229 21.432 80.9277 21.688 81.877 21.688C82.293 21.688 82.7037 21.6347 83.109 21.528C83.5143 21.4107 83.957 21.24 84.437 21.016L84.949 22.488C84.4477 22.7653 83.9357 22.9627 83.413 23.08C82.8903 23.208 82.3143 23.272 81.685 23.272C80.7143 23.272 79.8877 23.0747 79.205 22.68C78.533 22.2853 78.021 21.7307 77.669 21.016C77.317 20.3013 77.141 19.4747 77.141 18.536C77.141 17.544 77.3223 16.696 77.685 15.992C78.0477 15.288 78.5437 14.7547 79.173 14.392C79.8023 14.0293 80.501 13.848 81.269 13.848C82.4743 13.848 83.4183 14.216 84.101 14.952C84.7943 15.6773 85.141 16.7387 85.141 18.136V18.856H79.045ZM81.269 15.432C80.0957 15.432 79.381 16.0827 79.125 17.384H83.221C83.1677 16.712 82.981 16.2213 82.661 15.912C82.341 15.592 81.877 15.432 81.269 15.432Z" fill="#0D4E67"/>
</svg>
