<svg width="239" height="21" viewBox="0 0 239 21" fill="none" xmlns="http://www.w3.org/2000/svg">
<path opacity="0.5" d="M4.95 2.41C4.554 2.41 4.284 2.494 4.14 2.662C3.996 2.83 3.924 3.142 3.924 3.598V5.992H5.904V7.864H3.924V16H1.872V7.864H0.648V5.992H1.872V2.986C1.872 2.134 2.082 1.516 2.502 1.132C2.934 0.735999 3.618 0.538 4.554 0.538C4.974 0.538 5.424 0.592 5.904 0.7V2.518C5.616 2.446 5.298 2.41 4.95 2.41ZM7.884 1.456H9.936V4.174H7.884V1.456ZM7.884 5.992H9.936V16H7.884V5.992ZM15.6909 16.234C14.7429 16.234 14.0529 16.042 13.6209 15.658C13.2009 15.262 12.9909 14.638 12.9909 13.786V0.772H15.0429V13.156C15.0429 13.612 15.1149 13.93 15.2589 14.11C15.4029 14.278 15.6789 14.362 16.0869 14.362C16.4469 14.362 16.7589 14.326 17.0229 14.254V16.072C16.5549 16.18 16.1109 16.234 15.6909 16.234ZM20.5327 11.338C20.5807 12.31 20.8567 13.084 21.3607 13.66C21.8647 14.236 22.6507 14.524 23.7187 14.524C24.1867 14.524 24.6487 14.464 25.1047 14.344C25.5607 14.212 26.0587 14.02 26.5987 13.768L27.1747 15.424C26.6107 15.736 26.0347 15.958 25.4467 16.09C24.8587 16.234 24.2107 16.306 23.5027 16.306C22.4107 16.306 21.4807 16.084 20.7127 15.64C19.9567 15.196 19.3807 14.572 18.9847 13.768C18.5887 12.964 18.3907 12.034 18.3907 10.978C18.3907 9.862 18.5947 8.908 19.0027 8.116C19.4107 7.324 19.9687 6.724 20.6767 6.316C21.3847 5.908 22.1707 5.704 23.0347 5.704C24.3907 5.704 25.4527 6.118 26.2207 6.946C27.0007 7.762 27.3907 8.956 27.3907 10.528V11.338H20.5327ZM23.0347 7.486C21.7147 7.486 20.9107 8.218 20.6227 9.682H25.2307C25.1707 8.926 24.9607 8.374 24.6007 8.026C24.2407 7.666 23.7187 7.486 23.0347 7.486ZM37.0125 2.41C36.6165 2.41 36.3465 2.494 36.2025 2.662C36.0585 2.83 35.9865 3.142 35.9865 3.598V5.992H37.9665V7.864H35.9865V16H33.9345V7.864H32.7105V5.992H33.9345V2.986C33.9345 2.134 34.1445 1.516 34.5645 1.132C34.9965 0.735999 35.6805 0.538 36.6165 0.538C37.0365 0.538 37.4865 0.592 37.9665 0.7V2.518C37.6785 2.446 37.3605 2.41 37.0125 2.41ZM44.3842 16.306C43.2922 16.306 42.3682 16.072 41.6122 15.604C40.8562 15.136 40.2862 14.506 39.9022 13.714C39.5182 12.91 39.3262 12.004 39.3262 10.996C39.3262 10 39.5182 9.1 39.9022 8.296C40.2862 7.492 40.8562 6.862 41.6122 6.406C42.3682 5.938 43.2922 5.704 44.3842 5.704C45.4642 5.704 46.3822 5.938 47.1382 6.406C47.8942 6.862 48.4582 7.492 48.8302 8.296C49.2142 9.1 49.4062 10 49.4062 10.996C49.4062 12.004 49.2142 12.91 48.8302 13.714C48.4582 14.506 47.8942 15.136 47.1382 15.604C46.3822 16.072 45.4642 16.306 44.3842 16.306ZM44.3842 14.488C45.3082 14.488 46.0162 14.17 46.5082 13.534C47.0122 12.898 47.2642 12.052 47.2642 10.996C47.2642 9.952 47.0122 9.112 46.5082 8.476C46.0162 7.84 45.3082 7.522 44.3842 7.522C43.4482 7.522 42.7282 7.84 42.2242 8.476C41.7202 9.112 41.4682 9.952 41.4682 10.996C41.4682 12.052 41.7202 12.898 42.2242 13.534C42.7282 14.17 43.4482 14.488 44.3842 14.488ZM57.2742 5.776V7.648H56.8602C55.8762 7.648 54.8922 8.038 53.9082 8.818V16H51.8562V5.992H53.9082V7.054C54.8562 6.202 55.8402 5.776 56.8602 5.776H57.2742ZM70.8285 5.776C72.0645 5.776 72.9765 6.106 73.5645 6.766C74.1645 7.414 74.4645 8.482 74.4645 9.97V16H72.4125V9.97C72.4125 9.142 72.2685 8.548 71.9805 8.188C71.7045 7.828 71.2065 7.648 70.4865 7.648C69.6225 7.648 68.7525 8.056 67.8765 8.872C67.9125 9.208 67.9305 9.574 67.9305 9.97V16H65.8785V9.97C65.8785 9.142 65.7345 8.548 65.4465 8.188C65.1705 7.828 64.6725 7.648 63.9525 7.648C63.1245 7.648 62.2725 8.026 61.3965 8.782V16H59.3445V5.992H61.3965V6.982C62.3085 6.178 63.2745 5.776 64.2945 5.776C65.0865 5.776 65.7405 5.908 66.2565 6.172C66.7845 6.436 67.1865 6.85 67.4625 7.414C68.5545 6.322 69.6765 5.776 70.8285 5.776ZM80.5154 5.992C81.6314 5.992 82.4834 6.172 83.0714 6.532C83.6594 6.88 84.0494 7.354 84.2414 7.954C84.4334 8.542 84.5294 9.286 84.5294 10.186V16H82.4774V15.046C82.0334 15.466 81.5894 15.772 81.1454 15.964C80.7014 16.144 80.2214 16.234 79.7054 16.234C78.6974 16.234 77.8754 15.934 77.2394 15.334C76.6034 14.722 76.2854 13.888 76.2854 12.832C76.2854 11.752 76.6214 10.918 77.2934 10.33C77.9654 9.73 78.8714 9.43 80.0114 9.43C80.8994 9.43 81.7154 9.622 82.4594 10.006C82.4474 9.49 82.3874 9.076 82.2794 8.764C82.1834 8.452 81.9734 8.212 81.6494 8.044C81.3374 7.876 80.8694 7.792 80.2454 7.792H78.7334V5.992H80.5154ZM80.0294 14.542C80.8214 14.542 81.6374 14.182 82.4774 13.462V11.536C81.8054 11.2 81.1094 11.032 80.3894 11.032C79.8014 11.032 79.3154 11.17 78.9314 11.446C78.5594 11.722 78.3734 12.178 78.3734 12.814C78.3734 13.426 78.5354 13.87 78.8594 14.146C79.1834 14.41 79.5734 14.542 80.0294 14.542ZM89.7074 8.044V13.156C89.7074 13.612 89.7794 13.93 89.9234 14.11C90.0674 14.278 90.3374 14.362 90.7334 14.362C91.1054 14.362 91.4834 14.314 91.8674 14.218V16.036C91.3034 16.168 90.7814 16.234 90.3014 16.234C89.3414 16.234 88.6574 16.036 88.2494 15.64C87.8534 15.244 87.6554 14.608 87.6554 13.732V8.044H86.3414V6.172H87.6554V2.752H89.7074V6.172H92.0114V8.044H89.7074ZM101.432 16.306C100.676 16.306 100.004 16.24 99.4161 16.108C98.8401 15.988 98.2281 15.778 97.5801 15.478V13.534C98.7321 14.194 100.016 14.524 101.432 14.524C102.032 14.524 102.464 14.41 102.728 14.182C103.004 13.942 103.142 13.624 103.142 13.228C103.142 12.868 103.04 12.598 102.836 12.418C102.632 12.238 102.302 12.088 101.846 11.968L100.532 11.662C99.6441 11.458 98.9601 11.128 98.4801 10.672C98.0121 10.216 97.7781 9.556 97.7781 8.692C97.7781 7.732 98.0841 6.994 98.6961 6.478C99.3201 5.962 100.244 5.704 101.468 5.704C102.548 5.704 103.646 5.92 104.762 6.352V8.206C103.754 7.726 102.68 7.486 101.54 7.486C100.94 7.486 100.508 7.594 100.244 7.81C99.9921 8.014 99.8661 8.278 99.8661 8.602C99.8661 8.95 99.9681 9.208 100.172 9.376C100.376 9.544 100.682 9.682 101.09 9.79L102.422 10.096C103.37 10.312 104.072 10.642 104.528 11.086C104.996 11.518 105.23 12.208 105.23 13.156C105.23 14.176 104.882 14.956 104.186 15.496C103.502 16.036 102.584 16.306 101.432 16.306ZM116.36 5.992V16H114.308V15.01C113.36 15.814 112.364 16.216 111.32 16.216C110.06 16.216 109.124 15.886 108.512 15.226C107.9 14.566 107.594 13.498 107.594 12.022V5.992H109.646V12.022C109.646 12.838 109.796 13.432 110.096 13.804C110.408 14.164 110.936 14.344 111.68 14.344C112.556 14.344 113.432 13.966 114.308 13.21V5.992H116.36ZM124.322 5.704C125.678 5.704 126.764 6.16 127.58 7.072C128.396 7.972 128.804 9.28 128.804 10.996C128.804 12.724 128.396 14.044 127.58 14.956C126.764 15.856 125.678 16.306 124.322 16.306C123.35 16.306 122.402 15.922 121.478 15.154V20.212H119.426V5.992H121.478V6.856C122.402 6.088 123.35 5.704 124.322 5.704ZM123.98 14.434C124.868 14.434 125.54 14.146 125.996 13.57C126.452 12.982 126.68 12.124 126.68 10.996C126.68 9.88 126.452 9.034 125.996 8.458C125.54 7.87 124.868 7.576 123.98 7.576C123.152 7.576 122.318 7.912 121.478 8.584V13.426C122.318 14.098 123.152 14.434 123.98 14.434ZM136.153 5.704C137.509 5.704 138.595 6.16 139.411 7.072C140.227 7.972 140.635 9.28 140.635 10.996C140.635 12.724 140.227 14.044 139.411 14.956C138.595 15.856 137.509 16.306 136.153 16.306C135.181 16.306 134.233 15.922 133.309 15.154V20.212H131.257V5.992H133.309V6.856C134.233 6.088 135.181 5.704 136.153 5.704ZM135.811 14.434C136.699 14.434 137.371 14.146 137.827 13.57C138.283 12.982 138.511 12.124 138.511 10.996C138.511 9.88 138.283 9.034 137.827 8.458C137.371 7.87 136.699 7.576 135.811 7.576C134.983 7.576 134.149 7.912 133.309 8.584V13.426C134.149 14.098 134.983 14.434 135.811 14.434ZM147.533 16.306C146.441 16.306 145.517 16.072 144.761 15.604C144.005 15.136 143.435 14.506 143.051 13.714C142.667 12.91 142.475 12.004 142.475 10.996C142.475 10 142.667 9.1 143.051 8.296C143.435 7.492 144.005 6.862 144.761 6.406C145.517 5.938 146.441 5.704 147.533 5.704C148.613 5.704 149.531 5.938 150.287 6.406C151.043 6.862 151.607 7.492 151.979 8.296C152.363 9.1 152.555 10 152.555 10.996C152.555 12.004 152.363 12.91 151.979 13.714C151.607 14.506 151.043 15.136 150.287 15.604C149.531 16.072 148.613 16.306 147.533 16.306ZM147.533 14.488C148.457 14.488 149.165 14.17 149.657 13.534C150.161 12.898 150.413 12.052 150.413 10.996C150.413 9.952 150.161 9.112 149.657 8.476C149.165 7.84 148.457 7.522 147.533 7.522C146.597 7.522 145.877 7.84 145.373 8.476C144.869 9.112 144.617 9.952 144.617 10.996C144.617 12.052 144.869 12.898 145.373 13.534C145.877 14.17 146.597 14.488 147.533 14.488ZM160.423 5.776V7.648H160.009C159.025 7.648 158.041 8.038 157.057 8.818V16H155.005V5.992H157.057V7.054C158.005 6.202 158.989 5.776 160.009 5.776H160.423ZM164.977 8.044V13.156C164.977 13.612 165.049 13.93 165.193 14.11C165.337 14.278 165.607 14.362 166.003 14.362C166.375 14.362 166.753 14.314 167.137 14.218V16.036C166.573 16.168 166.051 16.234 165.571 16.234C164.611 16.234 163.927 16.036 163.519 15.64C163.123 15.244 162.925 14.608 162.925 13.732V8.044H161.611V6.172H162.925V2.752H164.977V6.172H167.281V8.044H164.977ZM171.037 11.338C171.085 12.31 171.361 13.084 171.865 13.66C172.369 14.236 173.155 14.524 174.223 14.524C174.691 14.524 175.153 14.464 175.609 14.344C176.065 14.212 176.563 14.02 177.103 13.768L177.679 15.424C177.115 15.736 176.539 15.958 175.951 16.09C175.363 16.234 174.715 16.306 174.007 16.306C172.915 16.306 171.985 16.084 171.217 15.64C170.461 15.196 169.885 14.572 169.489 13.768C169.093 12.964 168.895 12.034 168.895 10.978C168.895 9.862 169.099 8.908 169.507 8.116C169.915 7.324 170.473 6.724 171.181 6.316C171.889 5.908 172.675 5.704 173.539 5.704C174.895 5.704 175.957 6.118 176.725 6.946C177.505 7.762 177.895 8.956 177.895 10.528V11.338H171.037ZM173.539 7.486C172.219 7.486 171.415 8.218 171.127 9.682H175.735C175.675 8.926 175.465 8.374 175.105 8.026C174.745 7.666 174.223 7.486 173.539 7.486ZM188.907 0.772V16H186.855V15.154C185.931 15.922 184.983 16.306 184.011 16.306C182.655 16.306 181.569 15.856 180.753 14.956C179.937 14.044 179.529 12.724 179.529 10.996C179.529 9.28 179.937 7.972 180.753 7.072C181.569 6.16 182.655 5.704 184.011 5.704C184.983 5.704 185.931 6.088 186.855 6.856V0.772H188.907ZM184.353 14.434C185.181 14.434 186.015 14.098 186.855 13.426V8.584C186.015 7.912 185.181 7.576 184.353 7.576C183.465 7.576 182.793 7.87 182.337 8.458C181.893 9.034 181.671 9.88 181.671 10.996C181.671 12.124 181.893 12.982 182.337 13.57C182.793 14.146 183.465 14.434 184.353 14.434ZM191.881 13.012H194.113V16H191.881V13.012ZM191.881 5.902H194.113V8.89H191.881V5.902ZM212.526 5.776C213.762 5.776 214.674 6.106 215.262 6.766C215.862 7.414 216.162 8.482 216.162 9.97V16H214.11V9.97C214.11 9.142 213.966 8.548 213.678 8.188C213.402 7.828 212.904 7.648 212.184 7.648C211.32 7.648 210.45 8.056 209.574 8.872C209.61 9.208 209.628 9.574 209.628 9.97V16H207.576V9.97C207.576 9.142 207.432 8.548 207.144 8.188C206.868 7.828 206.37 7.648 205.65 7.648C204.822 7.648 203.97 8.026 203.094 8.782V16H201.042V5.992H203.094V6.982C204.006 6.178 204.972 5.776 205.992 5.776C206.784 5.776 207.438 5.908 207.954 6.172C208.482 6.436 208.884 6.85 209.16 7.414C210.252 6.322 211.374 5.776 212.526 5.776ZM223.815 5.704C225.171 5.704 226.257 6.16 227.073 7.072C227.889 7.972 228.297 9.28 228.297 10.996C228.297 12.724 227.889 14.044 227.073 14.956C226.257 15.856 225.171 16.306 223.815 16.306C222.843 16.306 221.895 15.922 220.971 15.154V20.212H218.919V5.992H220.971V6.856C221.895 6.088 222.843 5.704 223.815 5.704ZM223.473 14.434C224.361 14.434 225.033 14.146 225.489 13.57C225.945 12.982 226.173 12.124 226.173 10.996C226.173 9.88 225.945 9.034 225.489 8.458C225.033 7.87 224.361 7.576 223.473 7.576C222.645 7.576 221.811 7.912 220.971 8.584V13.426C221.811 14.098 222.645 14.434 223.473 14.434ZM235.825 9.592C236.557 9.808 237.115 10.18 237.499 10.708C237.895 11.224 238.093 11.878 238.093 12.67C238.093 13.786 237.709 14.674 236.941 15.334C236.173 15.982 235.135 16.306 233.827 16.306C232.543 16.306 231.409 16.096 230.425 15.676V13.768C230.881 13.984 231.373 14.158 231.901 14.29C232.429 14.41 232.951 14.47 233.467 14.47C234.271 14.47 234.889 14.29 235.321 13.93C235.753 13.57 235.969 13.06 235.969 12.4C235.969 11.788 235.753 11.326 235.321 11.014C234.889 10.69 234.271 10.528 233.467 10.528H231.865V8.692H233.467C234.223 8.692 234.799 8.554 235.195 8.278C235.591 8.002 235.789 7.594 235.789 7.054C235.789 6.55 235.597 6.16 235.213 5.884C234.829 5.596 234.283 5.452 233.575 5.452C232.435 5.452 231.445 5.662 230.605 6.082V4.174C231.505 3.802 232.579 3.616 233.827 3.616C235.087 3.616 236.083 3.898 236.815 4.462C237.547 5.026 237.913 5.788 237.913 6.748C237.913 7.492 237.739 8.092 237.391 8.548C237.043 8.992 236.521 9.34 235.825 9.592Z" fill="white"/>
</svg>
