<svg width="650" height="300" viewBox="0 0 650 300" fill="none" xmlns="http://www.w3.org/2000/svg">
<path opacity="0.5" d="M209.95 197.41C209.554 197.41 209.284 197.494 209.14 197.662C208.996 197.83 208.924 198.142 208.924 198.598V200.992H210.904V202.864H208.924V211H206.872V202.864H205.648V200.992H206.872V197.986C206.872 197.134 207.082 196.516 207.502 196.132C207.934 195.736 208.618 195.538 209.554 195.538C209.974 195.538 210.424 195.592 210.904 195.7V197.518C210.616 197.446 210.298 197.41 209.95 197.41ZM212.884 196.456H214.936V199.174H212.884V196.456ZM212.884 200.992H214.936V211H212.884V200.992ZM220.691 211.234C219.743 211.234 219.053 211.042 218.621 210.658C218.201 210.262 217.991 209.638 217.991 208.786V195.772H220.043V208.156C220.043 208.612 220.115 208.93 220.259 209.11C220.403 209.278 220.679 209.362 221.087 209.362C221.447 209.362 221.759 209.326 222.023 209.254V211.072C221.555 211.18 221.111 211.234 220.691 211.234ZM225.533 206.338C225.581 207.31 225.857 208.084 226.361 208.66C226.865 209.236 227.651 209.524 228.719 209.524C229.187 209.524 229.649 209.464 230.105 209.344C230.561 209.212 231.059 209.02 231.599 208.768L232.175 210.424C231.611 210.736 231.035 210.958 230.447 211.09C229.859 211.234 229.211 211.306 228.503 211.306C227.411 211.306 226.481 211.084 225.713 210.64C224.957 210.196 224.381 209.572 223.985 208.768C223.589 207.964 223.391 207.034 223.391 205.978C223.391 204.862 223.595 203.908 224.003 203.116C224.411 202.324 224.969 201.724 225.677 201.316C226.385 200.908 227.171 200.704 228.035 200.704C229.391 200.704 230.453 201.118 231.221 201.946C232.001 202.762 232.391 203.956 232.391 205.528V206.338H225.533ZM228.035 202.486C226.715 202.486 225.911 203.218 225.623 204.682H230.231C230.171 203.926 229.961 203.374 229.601 203.026C229.241 202.666 228.719 202.486 228.035 202.486ZM242.013 197.41C241.617 197.41 241.347 197.494 241.203 197.662C241.059 197.83 240.987 198.142 240.987 198.598V200.992H242.967V202.864H240.987V211H238.935V202.864H237.711V200.992H238.935V197.986C238.935 197.134 239.145 196.516 239.565 196.132C239.997 195.736 240.681 195.538 241.617 195.538C242.037 195.538 242.487 195.592 242.967 195.7V197.518C242.679 197.446 242.361 197.41 242.013 197.41ZM249.384 211.306C248.292 211.306 247.368 211.072 246.612 210.604C245.856 210.136 245.286 209.506 244.902 208.714C244.518 207.91 244.326 207.004 244.326 205.996C244.326 205 244.518 204.1 244.902 203.296C245.286 202.492 245.856 201.862 246.612 201.406C247.368 200.938 248.292 200.704 249.384 200.704C250.464 200.704 251.382 200.938 252.138 201.406C252.894 201.862 253.458 202.492 253.83 203.296C254.214 204.1 254.406 205 254.406 205.996C254.406 207.004 254.214 207.91 253.83 208.714C253.458 209.506 252.894 210.136 252.138 210.604C251.382 211.072 250.464 211.306 249.384 211.306ZM249.384 209.488C250.308 209.488 251.016 209.17 251.508 208.534C252.012 207.898 252.264 207.052 252.264 205.996C252.264 204.952 252.012 204.112 251.508 203.476C251.016 202.84 250.308 202.522 249.384 202.522C248.448 202.522 247.728 202.84 247.224 203.476C246.72 204.112 246.468 204.952 246.468 205.996C246.468 207.052 246.72 207.898 247.224 208.534C247.728 209.17 248.448 209.488 249.384 209.488ZM262.274 200.776V202.648H261.86C260.876 202.648 259.892 203.038 258.908 203.818V211H256.856V200.992H258.908V202.054C259.856 201.202 260.84 200.776 261.86 200.776H262.274ZM275.828 200.776C277.064 200.776 277.976 201.106 278.564 201.766C279.164 202.414 279.464 203.482 279.464 204.97V211H277.412V204.97C277.412 204.142 277.268 203.548 276.98 203.188C276.704 202.828 276.206 202.648 275.486 202.648C274.622 202.648 273.752 203.056 272.876 203.872C272.912 204.208 272.93 204.574 272.93 204.97V211H270.878V204.97C270.878 204.142 270.734 203.548 270.446 203.188C270.17 202.828 269.672 202.648 268.952 202.648C268.124 202.648 267.272 203.026 266.396 203.782V211H264.344V200.992H266.396V201.982C267.308 201.178 268.274 200.776 269.294 200.776C270.086 200.776 270.74 200.908 271.256 201.172C271.784 201.436 272.186 201.85 272.462 202.414C273.554 201.322 274.676 200.776 275.828 200.776ZM285.515 200.992C286.631 200.992 287.483 201.172 288.071 201.532C288.659 201.88 289.049 202.354 289.241 202.954C289.433 203.542 289.529 204.286 289.529 205.186V211H287.477V210.046C287.033 210.466 286.589 210.772 286.145 210.964C285.701 211.144 285.221 211.234 284.705 211.234C283.697 211.234 282.875 210.934 282.239 210.334C281.603 209.722 281.285 208.888 281.285 207.832C281.285 206.752 281.621 205.918 282.293 205.33C282.965 204.73 283.871 204.43 285.011 204.43C285.899 204.43 286.715 204.622 287.459 205.006C287.447 204.49 287.387 204.076 287.279 203.764C287.183 203.452 286.973 203.212 286.649 203.044C286.337 202.876 285.869 202.792 285.245 202.792H283.733V200.992H285.515ZM285.029 209.542C285.821 209.542 286.637 209.182 287.477 208.462V206.536C286.805 206.2 286.109 206.032 285.389 206.032C284.801 206.032 284.315 206.17 283.931 206.446C283.559 206.722 283.373 207.178 283.373 207.814C283.373 208.426 283.535 208.87 283.859 209.146C284.183 209.41 284.573 209.542 285.029 209.542ZM294.707 203.044V208.156C294.707 208.612 294.779 208.93 294.923 209.11C295.067 209.278 295.337 209.362 295.733 209.362C296.105 209.362 296.483 209.314 296.867 209.218V211.036C296.303 211.168 295.781 211.234 295.301 211.234C294.341 211.234 293.657 211.036 293.249 210.64C292.853 210.244 292.655 209.608 292.655 208.732V203.044H291.341V201.172H292.655V197.752H294.707V201.172H297.011V203.044H294.707ZM306.432 211.306C305.676 211.306 305.004 211.24 304.416 211.108C303.84 210.988 303.228 210.778 302.58 210.478V208.534C303.732 209.194 305.016 209.524 306.432 209.524C307.032 209.524 307.464 209.41 307.728 209.182C308.004 208.942 308.142 208.624 308.142 208.228C308.142 207.868 308.04 207.598 307.836 207.418C307.632 207.238 307.302 207.088 306.846 206.968L305.532 206.662C304.644 206.458 303.96 206.128 303.48 205.672C303.012 205.216 302.778 204.556 302.778 203.692C302.778 202.732 303.084 201.994 303.696 201.478C304.32 200.962 305.244 200.704 306.468 200.704C307.548 200.704 308.646 200.92 309.762 201.352V203.206C308.754 202.726 307.68 202.486 306.54 202.486C305.94 202.486 305.508 202.594 305.244 202.81C304.992 203.014 304.866 203.278 304.866 203.602C304.866 203.95 304.968 204.208 305.172 204.376C305.376 204.544 305.682 204.682 306.09 204.79L307.422 205.096C308.37 205.312 309.072 205.642 309.528 206.086C309.996 206.518 310.23 207.208 310.23 208.156C310.23 209.176 309.882 209.956 309.186 210.496C308.502 211.036 307.584 211.306 306.432 211.306ZM321.36 200.992V211H319.308V210.01C318.36 210.814 317.364 211.216 316.32 211.216C315.06 211.216 314.124 210.886 313.512 210.226C312.9 209.566 312.594 208.498 312.594 207.022V200.992H314.646V207.022C314.646 207.838 314.796 208.432 315.096 208.804C315.408 209.164 315.936 209.344 316.68 209.344C317.556 209.344 318.432 208.966 319.308 208.21V200.992H321.36ZM329.322 200.704C330.678 200.704 331.764 201.16 332.58 202.072C333.396 202.972 333.804 204.28 333.804 205.996C333.804 207.724 333.396 209.044 332.58 209.956C331.764 210.856 330.678 211.306 329.322 211.306C328.35 211.306 327.402 210.922 326.478 210.154V215.212H324.426V200.992H326.478V201.856C327.402 201.088 328.35 200.704 329.322 200.704ZM328.98 209.434C329.868 209.434 330.54 209.146 330.996 208.57C331.452 207.982 331.68 207.124 331.68 205.996C331.68 204.88 331.452 204.034 330.996 203.458C330.54 202.87 329.868 202.576 328.98 202.576C328.152 202.576 327.318 202.912 326.478 203.584V208.426C327.318 209.098 328.152 209.434 328.98 209.434ZM341.153 200.704C342.509 200.704 343.595 201.16 344.411 202.072C345.227 202.972 345.635 204.28 345.635 205.996C345.635 207.724 345.227 209.044 344.411 209.956C343.595 210.856 342.509 211.306 341.153 211.306C340.181 211.306 339.233 210.922 338.309 210.154V215.212H336.257V200.992H338.309V201.856C339.233 201.088 340.181 200.704 341.153 200.704ZM340.811 209.434C341.699 209.434 342.371 209.146 342.827 208.57C343.283 207.982 343.511 207.124 343.511 205.996C343.511 204.88 343.283 204.034 342.827 203.458C342.371 202.87 341.699 202.576 340.811 202.576C339.983 202.576 339.149 202.912 338.309 203.584V208.426C339.149 209.098 339.983 209.434 340.811 209.434ZM352.533 211.306C351.441 211.306 350.517 211.072 349.761 210.604C349.005 210.136 348.435 209.506 348.051 208.714C347.667 207.91 347.475 207.004 347.475 205.996C347.475 205 347.667 204.1 348.051 203.296C348.435 202.492 349.005 201.862 349.761 201.406C350.517 200.938 351.441 200.704 352.533 200.704C353.613 200.704 354.531 200.938 355.287 201.406C356.043 201.862 356.607 202.492 356.979 203.296C357.363 204.1 357.555 205 357.555 205.996C357.555 207.004 357.363 207.91 356.979 208.714C356.607 209.506 356.043 210.136 355.287 210.604C354.531 211.072 353.613 211.306 352.533 211.306ZM352.533 209.488C353.457 209.488 354.165 209.17 354.657 208.534C355.161 207.898 355.413 207.052 355.413 205.996C355.413 204.952 355.161 204.112 354.657 203.476C354.165 202.84 353.457 202.522 352.533 202.522C351.597 202.522 350.877 202.84 350.373 203.476C349.869 204.112 349.617 204.952 349.617 205.996C349.617 207.052 349.869 207.898 350.373 208.534C350.877 209.17 351.597 209.488 352.533 209.488ZM365.423 200.776V202.648H365.009C364.025 202.648 363.041 203.038 362.057 203.818V211H360.005V200.992H362.057V202.054C363.005 201.202 363.989 200.776 365.009 200.776H365.423ZM369.977 203.044V208.156C369.977 208.612 370.049 208.93 370.193 209.11C370.337 209.278 370.607 209.362 371.003 209.362C371.375 209.362 371.753 209.314 372.137 209.218V211.036C371.573 211.168 371.051 211.234 370.571 211.234C369.611 211.234 368.927 211.036 368.519 210.64C368.123 210.244 367.925 209.608 367.925 208.732V203.044H366.611V201.172H367.925V197.752H369.977V201.172H372.281V203.044H369.977ZM376.037 206.338C376.085 207.31 376.361 208.084 376.865 208.66C377.369 209.236 378.155 209.524 379.223 209.524C379.691 209.524 380.153 209.464 380.609 209.344C381.065 209.212 381.563 209.02 382.103 208.768L382.679 210.424C382.115 210.736 381.539 210.958 380.951 211.09C380.363 211.234 379.715 211.306 379.007 211.306C377.915 211.306 376.985 211.084 376.217 210.64C375.461 210.196 374.885 209.572 374.489 208.768C374.093 207.964 373.895 207.034 373.895 205.978C373.895 204.862 374.099 203.908 374.507 203.116C374.915 202.324 375.473 201.724 376.181 201.316C376.889 200.908 377.675 200.704 378.539 200.704C379.895 200.704 380.957 201.118 381.725 201.946C382.505 202.762 382.895 203.956 382.895 205.528V206.338H376.037ZM378.539 202.486C377.219 202.486 376.415 203.218 376.127 204.682H380.735C380.675 203.926 380.465 203.374 380.105 203.026C379.745 202.666 379.223 202.486 378.539 202.486ZM393.907 195.772V211H391.855V210.154C390.931 210.922 389.983 211.306 389.011 211.306C387.655 211.306 386.569 210.856 385.753 209.956C384.937 209.044 384.529 207.724 384.529 205.996C384.529 204.28 384.937 202.972 385.753 202.072C386.569 201.16 387.655 200.704 389.011 200.704C389.983 200.704 390.931 201.088 391.855 201.856V195.772H393.907ZM389.353 209.434C390.181 209.434 391.015 209.098 391.855 208.426V203.584C391.015 202.912 390.181 202.576 389.353 202.576C388.465 202.576 387.793 202.87 387.337 203.458C386.893 204.034 386.671 204.88 386.671 205.996C386.671 207.124 386.893 207.982 387.337 208.57C387.793 209.146 388.465 209.434 389.353 209.434ZM396.881 208.012H399.113V211H396.881V208.012ZM396.881 200.902H399.113V203.89H396.881V200.902ZM417.526 200.776C418.762 200.776 419.674 201.106 420.262 201.766C420.862 202.414 421.162 203.482 421.162 204.97V211H419.11V204.97C419.11 204.142 418.966 203.548 418.678 203.188C418.402 202.828 417.904 202.648 417.184 202.648C416.32 202.648 415.45 203.056 414.574 203.872C414.61 204.208 414.628 204.574 414.628 204.97V211H412.576V204.97C412.576 204.142 412.432 203.548 412.144 203.188C411.868 202.828 411.37 202.648 410.65 202.648C409.822 202.648 408.97 203.026 408.094 203.782V211H406.042V200.992H408.094V201.982C409.006 201.178 409.972 200.776 410.992 200.776C411.784 200.776 412.438 200.908 412.954 201.172C413.482 201.436 413.884 201.85 414.16 202.414C415.252 201.322 416.374 200.776 417.526 200.776ZM428.815 200.704C430.171 200.704 431.257 201.16 432.073 202.072C432.889 202.972 433.297 204.28 433.297 205.996C433.297 207.724 432.889 209.044 432.073 209.956C431.257 210.856 430.171 211.306 428.815 211.306C427.843 211.306 426.895 210.922 425.971 210.154V215.212H423.919V200.992H425.971V201.856C426.895 201.088 427.843 200.704 428.815 200.704ZM428.473 209.434C429.361 209.434 430.033 209.146 430.489 208.57C430.945 207.982 431.173 207.124 431.173 205.996C431.173 204.88 430.945 204.034 430.489 203.458C430.033 202.87 429.361 202.576 428.473 202.576C427.645 202.576 426.811 202.912 425.971 203.584V208.426C426.811 209.098 427.645 209.434 428.473 209.434ZM440.825 204.592C441.557 204.808 442.115 205.18 442.499 205.708C442.895 206.224 443.093 206.878 443.093 207.67C443.093 208.786 442.709 209.674 441.941 210.334C441.173 210.982 440.135 211.306 438.827 211.306C437.543 211.306 436.409 211.096 435.425 210.676V208.768C435.881 208.984 436.373 209.158 436.901 209.29C437.429 209.41 437.951 209.47 438.467 209.47C439.271 209.47 439.889 209.29 440.321 208.93C440.753 208.57 440.969 208.06 440.969 207.4C440.969 206.788 440.753 206.326 440.321 206.014C439.889 205.69 439.271 205.528 438.467 205.528H436.865V203.692H438.467C439.223 203.692 439.799 203.554 440.195 203.278C440.591 203.002 440.789 202.594 440.789 202.054C440.789 201.55 440.597 201.16 440.213 200.884C439.829 200.596 439.283 200.452 438.575 200.452C437.435 200.452 436.445 200.662 435.605 201.082V199.174C436.505 198.802 437.579 198.616 438.827 198.616C440.087 198.616 441.083 198.898 441.815 199.462C442.547 200.026 442.913 200.788 442.913 201.748C442.913 202.492 442.739 203.092 442.391 203.548C442.043 203.992 441.521 204.34 440.825 204.592Z" fill="white"/>
<path opacity="0.5" d="M226.528 179.408C224.128 179.408 222.328 178.8 221.128 177.584C219.944 176.368 219.352 174.656 219.352 172.448V160.808H222.184V172.448C222.184 173.936 222.544 175.064 223.264 175.832C224 176.584 225.088 176.96 226.528 176.96C227.968 176.96 229.048 176.584 229.768 175.832C230.504 175.064 230.872 173.936 230.872 172.448V160.808H233.704V172.448C233.704 174.672 233.104 176.392 231.904 177.608C230.72 178.808 228.928 179.408 226.528 179.408ZM244.599 165.272C246.407 165.272 247.855 165.88 248.943 167.096C250.031 168.296 250.575 170.04 250.575 172.328C250.575 174.632 250.031 176.392 248.943 177.608C247.855 178.808 246.407 179.408 244.599 179.408C243.303 179.408 242.039 178.896 240.807 177.872V184.616H238.071V165.656H240.807V166.808C242.039 165.784 243.303 165.272 244.599 165.272ZM244.143 176.912C245.327 176.912 246.223 176.528 246.831 175.76C247.439 174.976 247.743 173.832 247.743 172.328C247.743 170.84 247.439 169.712 246.831 168.944C246.223 168.16 245.327 167.768 244.143 167.768C243.039 167.768 241.927 168.216 240.807 169.112V175.568C241.927 176.464 243.039 176.912 244.143 176.912ZM257.445 179.312C256.181 179.312 255.261 179.056 254.685 178.544C254.125 178.016 253.845 177.184 253.845 176.048V158.696H256.581V175.208C256.581 175.816 256.677 176.24 256.869 176.48C257.061 176.704 257.429 176.816 257.973 176.816C258.453 176.816 258.869 176.768 259.221 176.672V179.096C258.597 179.24 258.005 179.312 257.445 179.312ZM267.788 179.408C266.332 179.408 265.1 179.096 264.092 178.472C263.084 177.848 262.324 177.008 261.812 175.952C261.3 174.88 261.044 173.672 261.044 172.328C261.044 171 261.3 169.8 261.812 168.728C262.324 167.656 263.084 166.816 264.092 166.208C265.1 165.584 266.332 165.272 267.788 165.272C269.228 165.272 270.452 165.584 271.46 166.208C272.468 166.816 273.22 167.656 273.716 168.728C274.228 169.8 274.484 171 274.484 172.328C274.484 173.672 274.228 174.88 273.716 175.952C273.22 177.008 272.468 177.848 271.46 178.472C270.452 179.096 269.228 179.408 267.788 179.408ZM267.788 176.984C269.02 176.984 269.964 176.56 270.62 175.712C271.292 174.864 271.628 173.736 271.628 172.328C271.628 170.936 271.292 169.816 270.62 168.968C269.964 168.12 269.02 167.696 267.788 167.696C266.54 167.696 265.58 168.12 264.908 168.968C264.236 169.816 263.9 170.936 263.9 172.328C263.9 173.736 264.236 174.864 264.908 175.712C265.58 176.56 266.54 176.984 267.788 176.984ZM282.143 165.656C283.631 165.656 284.767 165.896 285.551 166.376C286.335 166.84 286.855 167.472 287.111 168.272C287.367 169.056 287.495 170.048 287.495 171.248V179H284.759V177.728C284.167 178.288 283.575 178.696 282.983 178.952C282.391 179.192 281.751 179.312 281.063 179.312C279.719 179.312 278.623 178.912 277.775 178.112C276.927 177.296 276.503 176.184 276.503 174.776C276.503 173.336 276.951 172.224 277.847 171.44C278.743 170.64 279.951 170.24 281.471 170.24C282.655 170.24 283.743 170.496 284.735 171.008C284.719 170.32 284.639 169.768 284.495 169.352C284.367 168.936 284.087 168.616 283.655 168.392C283.239 168.168 282.615 168.056 281.783 168.056H279.767V165.656H282.143ZM281.495 177.056C282.551 177.056 283.639 176.576 284.759 175.616V173.048C283.863 172.6 282.935 172.376 281.975 172.376C281.191 172.376 280.543 172.56 280.031 172.928C279.535 173.296 279.287 173.904 279.287 174.752C279.287 175.568 279.503 176.16 279.935 176.528C280.367 176.88 280.887 177.056 281.495 177.056ZM302.775 158.696V179H300.039V177.872C298.807 178.896 297.543 179.408 296.247 179.408C294.439 179.408 292.991 178.808 291.903 177.608C290.815 176.392 290.271 174.632 290.271 172.328C290.271 170.04 290.815 168.296 291.903 167.096C292.991 165.88 294.439 165.272 296.247 165.272C297.543 165.272 298.807 165.784 300.039 166.808V158.696H302.775ZM296.703 176.912C297.807 176.912 298.919 176.464 300.039 175.568V169.112C298.919 168.216 297.807 167.768 296.703 167.768C295.519 167.768 294.623 168.16 294.015 168.944C293.423 169.712 293.127 170.84 293.127 172.328C293.127 173.832 293.423 174.976 294.015 175.76C294.623 176.528 295.519 176.912 296.703 176.912ZM326.822 160.808V179H323.678L315.326 165.464V179H312.494V160.808H315.638L323.99 174.344V160.808H326.822ZM333.299 172.784C333.363 174.08 333.731 175.112 334.403 175.88C335.075 176.648 336.123 177.032 337.547 177.032C338.171 177.032 338.787 176.952 339.395 176.792C340.003 176.616 340.667 176.36 341.387 176.024L342.155 178.232C341.403 178.648 340.635 178.944 339.851 179.12C339.067 179.312 338.203 179.408 337.259 179.408C335.803 179.408 334.563 179.112 333.539 178.52C332.531 177.928 331.763 177.096 331.235 176.024C330.707 174.952 330.443 173.712 330.443 172.304C330.443 170.816 330.715 169.544 331.259 168.488C331.803 167.432 332.547 166.632 333.491 166.088C334.435 165.544 335.483 165.272 336.635 165.272C338.443 165.272 339.859 165.824 340.883 166.928C341.923 168.016 342.443 169.608 342.443 171.704V172.784H333.299ZM336.635 167.648C334.875 167.648 333.803 168.624 333.419 170.576H339.563C339.483 169.568 339.203 168.832 338.723 168.368C338.243 167.888 337.547 167.648 336.635 167.648ZM364.086 165.656L360.174 179.216H357.102L354.054 169.568L351.006 179.216H347.934L343.998 165.656H346.83L349.494 175.76L352.446 165.656H355.638L358.614 175.76L361.254 165.656H364.086ZM377.753 179.408C375.385 179.408 373.273 178.968 371.417 178.088V175.472C373.305 176.464 375.417 176.96 377.753 176.96C378.985 176.96 379.889 176.712 380.465 176.216C381.041 175.72 381.329 175.064 381.329 174.248C381.329 173.464 381.065 172.872 380.537 172.472C380.009 172.072 379.209 171.728 378.137 171.44L376.505 170.984C375.577 170.712 374.777 170.4 374.105 170.048C373.433 169.696 372.865 169.184 372.401 168.512C371.953 167.824 371.729 166.936 371.729 165.848C371.729 164.088 372.249 162.752 373.289 161.84C374.329 160.928 375.793 160.472 377.681 160.472C378.817 160.472 379.809 160.576 380.657 160.784C381.521 160.976 382.393 161.288 383.273 161.72V164.264C381.577 163.368 379.713 162.92 377.681 162.92C375.601 162.92 374.561 163.832 374.561 165.656C374.577 166.456 374.817 167.048 375.281 167.432C375.761 167.8 376.537 168.128 377.609 168.416L379.265 168.872C380.257 169.144 381.097 169.464 381.785 169.832C382.489 170.2 383.057 170.736 383.489 171.44C383.937 172.128 384.161 173.032 384.161 174.152C384.145 175.784 383.569 177.072 382.433 178.016C381.297 178.944 379.737 179.408 377.753 179.408ZM393.531 179.408C392.075 179.408 390.843 179.096 389.835 178.472C388.827 177.848 388.067 177.008 387.555 175.952C387.043 174.88 386.787 173.672 386.787 172.328C386.787 171 387.043 169.8 387.555 168.728C388.067 167.656 388.827 166.816 389.835 166.208C390.843 165.584 392.075 165.272 393.531 165.272C394.971 165.272 396.195 165.584 397.203 166.208C398.211 166.816 398.963 167.656 399.459 168.728C399.971 169.8 400.227 171 400.227 172.328C400.227 173.672 399.971 174.88 399.459 175.952C398.963 177.008 398.211 177.848 397.203 178.472C396.195 179.096 394.971 179.408 393.531 179.408ZM393.531 176.984C394.763 176.984 395.707 176.56 396.363 175.712C397.035 174.864 397.371 173.736 397.371 172.328C397.371 170.936 397.035 169.816 396.363 168.968C395.707 168.12 394.763 167.696 393.531 167.696C392.283 167.696 391.323 168.12 390.651 168.968C389.979 169.816 389.643 170.936 389.643 172.328C389.643 173.736 389.979 174.864 390.651 175.712C391.323 176.56 392.283 176.984 393.531 176.984ZM410.213 165.368C411.893 165.368 413.141 165.808 413.957 166.688C414.773 167.552 415.181 168.976 415.181 170.96V179H412.445V170.96C412.445 169.856 412.245 169.064 411.845 168.584C411.445 168.104 410.749 167.864 409.757 167.864C408.605 167.864 407.429 168.368 406.229 169.376V179H403.493V165.656H406.229V167C407.493 165.912 408.821 165.368 410.213 165.368ZM430.789 165.656V179.192C430.789 181 430.333 182.424 429.421 183.464C428.509 184.504 427.021 185.024 424.957 185.024C423.869 185.024 422.917 184.96 422.101 184.832C421.301 184.704 420.501 184.48 419.701 184.16V181.52C420.453 181.856 421.213 182.104 421.981 182.264C422.765 182.44 423.477 182.528 424.117 182.528C425.189 182.528 426.005 182.384 426.565 182.096C427.141 181.824 427.533 181.432 427.741 180.92C427.949 180.424 428.053 179.768 428.053 178.952V177.392C426.821 178.416 425.557 178.928 424.261 178.928C422.453 178.928 421.005 178.352 419.917 177.2C418.829 176.032 418.285 174.328 418.285 172.088C418.285 169.88 418.829 168.192 419.917 167.024C421.005 165.856 422.453 165.272 424.261 165.272C425.557 165.272 426.821 165.784 428.053 166.808V165.656H430.789ZM424.717 176.432C425.805 176.432 426.917 175.984 428.053 175.088V169.112C426.917 168.216 425.805 167.768 424.717 167.768C423.549 167.768 422.653 168.152 422.029 168.92C421.421 169.672 421.117 170.728 421.117 172.088C421.117 174.984 422.317 176.432 424.717 176.432Z" fill="white"/>
<path opacity="0.5" d="M333.286 115C333.286 115.455 332.911 115.857 332.429 115.857H326.429V125.286C326.429 125.741 326.027 126.143 325.571 126.143H320.429C319.973 126.143 319.571 125.741 319.571 125.286V115.857H313.571C313.089 115.857 312.714 115.482 312.714 115C312.714 114.759 312.821 114.545 312.982 114.357L322.384 104.955C322.545 104.795 322.786 104.714 323 104.714C323.241 104.714 323.455 104.795 323.616 104.955L333.045 114.384C333.205 114.545 333.286 114.786 333.286 115ZM350.429 122.714C350.429 117.946 347.134 113.795 342.473 112.696C343.196 111.598 343.571 110.312 343.571 109C343.571 105.223 340.491 102.143 336.714 102.143C335.08 102.143 333.5 102.732 332.268 103.804C330.152 98.6607 325.143 95.2857 319.571 95.2857C311.991 95.2857 305.857 101.42 305.857 109C305.857 109.375 305.884 109.75 305.911 110.152C301.705 112.107 299 116.339 299 121C299 127.616 304.384 133 311 133H340.143C345.821 133 350.429 128.393 350.429 122.714Z" fill="white"/>
<rect opacity="0.5" x="1" y="1" width="648" height="298" rx="5" stroke="white" stroke-width="2" stroke-dasharray="4 5"/>
</svg>
