<svg width="212" height="28" viewBox="0 0 212 28" fill="none" xmlns="http://www.w3.org/2000/svg">
<path opacity="0.5" d="M7.528 21.408C5.128 21.408 3.328 20.8 2.128 19.584C0.944 18.368 0.352 16.656 0.352 14.448V2.808H3.184V14.448C3.184 15.936 3.544 17.064 4.264 17.832C5 18.584 6.088 18.96 7.528 18.96C8.968 18.96 10.048 18.584 10.768 17.832C11.504 17.064 11.872 15.936 11.872 14.448V2.808H14.704V14.448C14.704 16.672 14.104 18.392 12.904 19.608C11.72 20.808 9.928 21.408 7.528 21.408ZM25.5993 7.272C27.4073 7.272 28.8553 7.88 29.9433 9.096C31.0313 10.296 31.5753 12.04 31.5753 14.328C31.5753 16.632 31.0313 18.392 29.9433 19.608C28.8553 20.808 27.4073 21.408 25.5993 21.408C24.3033 21.408 23.0393 20.896 21.8073 19.872V26.616H19.0713V7.656H21.8073V8.808C23.0393 7.784 24.3033 7.272 25.5993 7.272ZM25.1433 18.912C26.3273 18.912 27.2233 18.528 27.8313 17.76C28.4393 16.976 28.7433 15.832 28.7433 14.328C28.7433 12.84 28.4393 11.712 27.8313 10.944C27.2233 10.16 26.3273 9.768 25.1433 9.768C24.0393 9.768 22.9273 10.216 21.8073 11.112V17.568C22.9273 18.464 24.0393 18.912 25.1433 18.912ZM38.4447 21.312C37.1807 21.312 36.2607 21.056 35.6847 20.544C35.1247 20.016 34.8447 19.184 34.8447 18.048V0.696H37.5807V17.208C37.5807 17.816 37.6767 18.24 37.8687 18.48C38.0607 18.704 38.4287 18.816 38.9727 18.816C39.4527 18.816 39.8687 18.768 40.2207 18.672V21.096C39.5967 21.24 39.0047 21.312 38.4447 21.312ZM48.7883 21.408C47.3323 21.408 46.1003 21.096 45.0923 20.472C44.0843 19.848 43.3243 19.008 42.8123 17.952C42.3003 16.88 42.0443 15.672 42.0443 14.328C42.0443 13 42.3003 11.8 42.8123 10.728C43.3243 9.656 44.0843 8.816 45.0923 8.208C46.1003 7.584 47.3323 7.272 48.7883 7.272C50.2283 7.272 51.4523 7.584 52.4603 8.208C53.4683 8.816 54.2203 9.656 54.7163 10.728C55.2283 11.8 55.4843 13 55.4843 14.328C55.4843 15.672 55.2283 16.88 54.7163 17.952C54.2203 19.008 53.4683 19.848 52.4603 20.472C51.4523 21.096 50.2283 21.408 48.7883 21.408ZM48.7883 18.984C50.0203 18.984 50.9643 18.56 51.6203 17.712C52.2923 16.864 52.6283 15.736 52.6283 14.328C52.6283 12.936 52.2923 11.816 51.6203 10.968C50.9643 10.12 50.0203 9.696 48.7883 9.696C47.5403 9.696 46.5803 10.12 45.9083 10.968C45.2363 11.816 44.9003 12.936 44.9003 14.328C44.9003 15.736 45.2363 16.864 45.9083 17.712C46.5803 18.56 47.5403 18.984 48.7883 18.984ZM63.1429 7.656C64.6309 7.656 65.7669 7.896 66.5509 8.376C67.3349 8.84 67.8549 9.472 68.1109 10.272C68.3669 11.056 68.4949 12.048 68.4949 13.248V21H65.7589V19.728C65.1669 20.288 64.5749 20.696 63.9829 20.952C63.3909 21.192 62.7509 21.312 62.0629 21.312C60.7189 21.312 59.6229 20.912 58.7749 20.112C57.9269 19.296 57.5029 18.184 57.5029 16.776C57.5029 15.336 57.9509 14.224 58.8469 13.44C59.7429 12.64 60.9509 12.24 62.4709 12.24C63.6549 12.24 64.7429 12.496 65.7349 13.008C65.7189 12.32 65.6389 11.768 65.4949 11.352C65.3669 10.936 65.0869 10.616 64.6549 10.392C64.2389 10.168 63.6149 10.056 62.7829 10.056H60.7669V7.656H63.1429ZM62.4949 19.056C63.5509 19.056 64.6389 18.576 65.7589 17.616V15.048C64.8629 14.6 63.9349 14.376 62.9749 14.376C62.1909 14.376 61.5429 14.56 61.0309 14.928C60.5349 15.296 60.2869 15.904 60.2869 16.752C60.2869 17.568 60.5029 18.16 60.9349 18.528C61.3669 18.88 61.8869 19.056 62.4949 19.056ZM83.7749 0.696V21H81.0389V19.872C79.8069 20.896 78.5429 21.408 77.2469 21.408C75.4389 21.408 73.9909 20.808 72.9029 19.608C71.8149 18.392 71.2709 16.632 71.2709 14.328C71.2709 12.04 71.8149 10.296 72.9029 9.096C73.9909 7.88 75.4389 7.272 77.2469 7.272C78.5429 7.272 79.8069 7.784 81.0389 8.808V0.696H83.7749ZM77.7029 18.912C78.8069 18.912 79.9189 18.464 81.0389 17.568V11.112C79.9189 10.216 78.8069 9.768 77.7029 9.768C76.5189 9.768 75.6229 10.16 75.0149 10.944C74.4229 11.712 74.1269 12.84 74.1269 14.328C74.1269 15.832 74.4229 16.976 75.0149 17.76C75.6229 18.528 76.5189 18.912 77.7029 18.912ZM107.822 2.808V21H104.678L96.3258 7.464V21H93.4938V2.808H96.6378L104.99 16.344V2.808H107.822ZM114.299 14.784C114.363 16.08 114.731 17.112 115.403 17.88C116.075 18.648 117.123 19.032 118.547 19.032C119.171 19.032 119.787 18.952 120.395 18.792C121.003 18.616 121.667 18.36 122.387 18.024L123.155 20.232C122.403 20.648 121.635 20.944 120.851 21.12C120.067 21.312 119.203 21.408 118.259 21.408C116.803 21.408 115.563 21.112 114.539 20.52C113.531 19.928 112.763 19.096 112.235 18.024C111.707 16.952 111.443 15.712 111.443 14.304C111.443 12.816 111.715 11.544 112.259 10.488C112.803 9.432 113.547 8.632 114.491 8.088C115.435 7.544 116.483 7.272 117.635 7.272C119.443 7.272 120.859 7.824 121.883 8.928C122.923 10.016 123.443 11.608 123.443 13.704V14.784H114.299ZM117.635 9.648C115.875 9.648 114.803 10.624 114.419 12.576H120.563C120.483 11.568 120.203 10.832 119.723 10.368C119.243 9.888 118.547 9.648 117.635 9.648ZM145.086 7.656L141.174 21.216H138.102L135.054 11.568L132.006 21.216H128.934L124.998 7.656H127.83L130.494 17.76L133.446 7.656H136.638L139.614 17.76L142.254 7.656H145.086ZM158.753 21.408C156.385 21.408 154.273 20.968 152.417 20.088V17.472C154.305 18.464 156.417 18.96 158.753 18.96C159.985 18.96 160.889 18.712 161.465 18.216C162.041 17.72 162.329 17.064 162.329 16.248C162.329 15.464 162.065 14.872 161.537 14.472C161.009 14.072 160.209 13.728 159.137 13.44L157.505 12.984C156.577 12.712 155.777 12.4 155.105 12.048C154.433 11.696 153.865 11.184 153.401 10.512C152.953 9.824 152.729 8.936 152.729 7.848C152.729 6.088 153.249 4.752 154.289 3.84C155.329 2.928 156.793 2.472 158.681 2.472C159.817 2.472 160.809 2.576 161.657 2.784C162.521 2.976 163.393 3.288 164.273 3.72V6.264C162.577 5.368 160.713 4.92 158.681 4.92C156.601 4.92 155.561 5.832 155.561 7.656C155.577 8.456 155.817 9.048 156.281 9.432C156.761 9.8 157.537 10.128 158.609 10.416L160.265 10.872C161.257 11.144 162.097 11.464 162.785 11.832C163.489 12.2 164.057 12.736 164.489 13.44C164.937 14.128 165.161 15.032 165.161 16.152C165.145 17.784 164.569 19.072 163.433 20.016C162.297 20.944 160.737 21.408 158.753 21.408ZM174.531 21.408C173.075 21.408 171.843 21.096 170.835 20.472C169.827 19.848 169.067 19.008 168.555 17.952C168.043 16.88 167.787 15.672 167.787 14.328C167.787 13 168.043 11.8 168.555 10.728C169.067 9.656 169.827 8.816 170.835 8.208C171.843 7.584 173.075 7.272 174.531 7.272C175.971 7.272 177.195 7.584 178.203 8.208C179.211 8.816 179.963 9.656 180.459 10.728C180.971 11.8 181.227 13 181.227 14.328C181.227 15.672 180.971 16.88 180.459 17.952C179.963 19.008 179.211 19.848 178.203 20.472C177.195 21.096 175.971 21.408 174.531 21.408ZM174.531 18.984C175.763 18.984 176.707 18.56 177.363 17.712C178.035 16.864 178.371 15.736 178.371 14.328C178.371 12.936 178.035 11.816 177.363 10.968C176.707 10.12 175.763 9.696 174.531 9.696C173.283 9.696 172.323 10.12 171.651 10.968C170.979 11.816 170.643 12.936 170.643 14.328C170.643 15.736 170.979 16.864 171.651 17.712C172.323 18.56 173.283 18.984 174.531 18.984ZM191.213 7.368C192.893 7.368 194.141 7.808 194.957 8.688C195.773 9.552 196.181 10.976 196.181 12.96V21H193.445V12.96C193.445 11.856 193.245 11.064 192.845 10.584C192.445 10.104 191.749 9.864 190.757 9.864C189.605 9.864 188.429 10.368 187.229 11.376V21H184.493V7.656H187.229V9C188.493 7.912 189.821 7.368 191.213 7.368ZM211.789 7.656V21.192C211.789 23 211.333 24.424 210.421 25.464C209.509 26.504 208.021 27.024 205.957 27.024C204.869 27.024 203.917 26.96 203.101 26.832C202.301 26.704 201.501 26.48 200.701 26.16V23.52C201.453 23.856 202.213 24.104 202.981 24.264C203.765 24.44 204.477 24.528 205.117 24.528C206.189 24.528 207.005 24.384 207.565 24.096C208.141 23.824 208.533 23.432 208.741 22.92C208.949 22.424 209.053 21.768 209.053 20.952V19.392C207.821 20.416 206.557 20.928 205.261 20.928C203.453 20.928 202.005 20.352 200.917 19.2C199.829 18.032 199.285 16.328 199.285 14.088C199.285 11.88 199.829 10.192 200.917 9.024C202.005 7.856 203.453 7.272 205.261 7.272C206.557 7.272 207.821 7.784 209.053 8.808V7.656H211.789ZM205.717 18.432C206.805 18.432 207.917 17.984 209.053 17.088V11.112C207.917 10.216 206.805 9.768 205.717 9.768C204.549 9.768 203.653 10.152 203.029 10.92C202.421 11.672 202.117 12.728 202.117 14.088C202.117 16.984 203.317 18.432 205.717 18.432Z" fill="white"/>
</svg>
