<svg width="252" height="303" viewBox="0 0 252 303" fill="none" xmlns="http://www.w3.org/2000/svg">
<path d="M59.375 181.188L35.8125 226H28.5L4.96875 181.188H12.25L32.1562 219.094L52.0625 181.188H59.375ZM72.9062 182.812C72.9062 183.479 72.7812 184.104 72.5312 184.688C72.2812 185.25 71.9375 185.75 71.5 186.188C71.0625 186.625 70.5521 186.969 69.9688 187.219C69.3854 187.469 68.7708 187.594 68.125 187.594C67.4583 187.594 66.8333 187.469 66.25 187.219C65.6667 186.969 65.1562 186.625 64.7188 186.188C64.2812 185.75 63.9375 185.25 63.6875 184.688C63.4375 184.104 63.3125 183.479 63.3125 182.812C63.3125 182.167 63.4375 181.552 63.6875 180.969C63.9375 180.385 64.2812 179.875 64.7188 179.438C65.1562 179 65.6667 178.656 66.25 178.406C66.8333 178.135 67.4583 178 68.125 178C68.7708 178 69.3854 178.135 69.9688 178.406C70.5521 178.656 71.0625 179 71.5 179.438C71.9375 179.875 72.2812 180.385 72.5312 180.969C72.7812 181.552 72.9062 182.167 72.9062 182.812ZM71.3125 226H64.9062V190.812H71.3125V226ZM117.281 214.812C117.281 216.354 116.99 217.812 116.406 219.188C115.823 220.542 115.021 221.729 114 222.75C113 223.75 111.812 224.542 110.438 225.125C109.083 225.708 107.635 226 106.094 226H78.875V219.594H106.094C106.74 219.594 107.354 219.469 107.938 219.219C108.521 218.969 109.031 218.625 109.469 218.188C109.906 217.75 110.25 217.25 110.5 216.688C110.75 216.104 110.875 215.479 110.875 214.812C110.875 214.167 110.75 213.552 110.5 212.969C110.25 212.385 109.906 211.875 109.469 211.438C109.031 211 108.521 210.656 107.938 210.406C107.354 210.135 106.74 210 106.094 210H88.4688C87.1354 210 85.8854 209.75 84.7188 209.25C83.5521 208.75 82.5312 208.073 81.6562 207.219C80.8021 206.344 80.125 205.323 79.625 204.156C79.125 202.99 78.875 201.74 78.875 200.406C78.875 199.073 79.125 197.823 79.625 196.656C80.125 195.49 80.8021 194.479 81.6562 193.625C82.5312 192.75 83.5521 192.062 84.7188 191.562C85.8854 191.062 87.1354 190.812 88.4688 190.812H114.094V197.188H88.4688C87.5729 197.188 86.8125 197.5 86.1875 198.125C85.5833 198.729 85.2812 199.49 85.2812 200.406C85.2812 201.302 85.5833 202.062 86.1875 202.688C86.8125 203.292 87.5729 203.594 88.4688 203.594H106.094C107.635 203.594 109.083 203.885 110.438 204.469C111.812 205.052 113 205.854 114 206.875C115.021 207.896 115.823 209.083 116.406 210.438C116.99 211.792 117.281 213.25 117.281 214.812ZM164.75 226H140.75C138.333 226 136.062 225.542 133.938 224.625C131.812 223.688 129.958 222.427 128.375 220.844C126.812 219.24 125.573 217.375 124.656 215.25C123.74 213.104 123.281 210.823 123.281 208.406V190.812H129.688V208.406C129.688 209.948 129.969 211.396 130.531 212.75C131.115 214.083 131.906 215.26 132.906 216.281C133.906 217.281 135.073 218.083 136.406 218.688C137.76 219.271 139.208 219.573 140.75 219.594H158.344V190.812H164.75V226ZM214.062 226H182.062C180.5 226 179.042 225.708 177.688 225.125C176.333 224.542 175.146 223.75 174.125 222.75C173.104 221.729 172.302 220.542 171.719 219.188C171.135 217.812 170.844 216.354 170.844 214.812C170.844 213.25 171.135 211.792 171.719 210.438C172.302 209.083 173.104 207.896 174.125 206.875C175.146 205.854 176.333 205.052 177.688 204.469C179.042 203.885 180.5 203.594 182.062 203.594H204.438V210H182.062C181.396 210 180.771 210.135 180.188 210.406C179.604 210.656 179.094 211 178.656 211.438C178.219 211.875 177.875 212.385 177.625 212.969C177.375 213.552 177.25 214.167 177.25 214.812C177.25 215.479 177.375 216.104 177.625 216.688C177.875 217.25 178.219 217.75 178.656 218.188C179.094 218.625 179.604 218.969 180.188 219.219C180.771 219.469 181.396 219.594 182.062 219.594H207.656V202C207.656 201.354 207.521 200.74 207.25 200.156C207 199.573 206.656 199.062 206.219 198.625C205.781 198.188 205.271 197.844 204.688 197.594C204.104 197.323 203.49 197.188 202.844 197.188H177.25V190.812H202.844C204.406 190.812 205.865 191.104 207.219 191.688C208.573 192.271 209.76 193.073 210.781 194.094C211.802 195.094 212.604 196.271 213.188 197.625C213.771 198.979 214.062 200.438 214.062 202V226ZM235.594 226H234C232.438 226 230.979 225.708 229.625 225.125C228.271 224.542 227.083 223.75 226.062 222.75C225.042 221.729 224.24 220.542 223.656 219.188C223.073 217.812 222.781 216.354 222.781 214.812V178H229.188V214.812C229.188 215.479 229.312 216.104 229.562 216.688C229.812 217.25 230.156 217.75 230.594 218.188C231.031 218.625 231.542 218.969 232.125 219.219C232.708 219.469 233.333 219.594 234 219.594H235.594V226ZM41.625 303H35.2188V280.594C35.2188 278.385 34.8021 276.312 33.9688 274.375C33.1354 272.438 31.9896 270.75 30.5312 269.312C29.0938 267.854 27.3958 266.708 25.4375 265.875C23.5 265.021 21.4271 264.594 19.2188 264.594H15.7812V303H9.375V258.188H19.2188C21.2604 258.188 23.2188 258.458 25.0938 259C26.9896 259.521 28.7604 260.26 30.4062 261.219C32.0521 262.177 33.5521 263.323 34.9062 264.656C36.2604 265.99 37.4375 267.469 38.4375 269.094C39.4167 267.469 40.5833 265.99 41.9375 264.656C43.2917 263.323 44.7917 262.177 46.4375 261.219C48.0833 260.26 49.8438 259.521 51.7188 259C53.6146 258.458 55.5833 258.188 57.625 258.188H67.5V303H61.0938V264.594H57.625C55.4167 264.594 53.3438 265.021 51.4062 265.875C49.4688 266.708 47.7708 267.854 46.3125 269.312C44.875 270.75 43.7292 272.438 42.875 274.375C42.0417 276.312 41.625 278.385 41.625 280.594V303ZM118.188 303H94.1875C91.7708 303 89.5 302.542 87.375 301.625C85.25 300.688 83.3958 299.427 81.8125 297.844C80.25 296.24 79.0104 294.375 78.0938 292.25C77.1771 290.104 76.7188 287.823 76.7188 285.406V267.812H83.125V285.406C83.125 286.948 83.4062 288.396 83.9688 289.75C84.5521 291.083 85.3438 292.26 86.3438 293.281C87.3438 294.281 88.5104 295.083 89.8438 295.688C91.1979 296.271 92.6458 296.573 94.1875 296.594H111.781V267.812H118.188V303ZM164.156 291.812C164.156 293.354 163.865 294.812 163.281 296.188C162.698 297.542 161.896 298.729 160.875 299.75C159.875 300.75 158.688 301.542 157.312 302.125C155.958 302.708 154.51 303 152.969 303H125.75V296.594H152.969C153.615 296.594 154.229 296.469 154.812 296.219C155.396 295.969 155.906 295.625 156.344 295.188C156.781 294.75 157.125 294.25 157.375 293.688C157.625 293.104 157.75 292.479 157.75 291.812C157.75 291.167 157.625 290.552 157.375 289.969C157.125 289.385 156.781 288.875 156.344 288.438C155.906 288 155.396 287.656 154.812 287.406C154.229 287.135 153.615 287 152.969 287H135.344C134.01 287 132.76 286.75 131.594 286.25C130.427 285.75 129.406 285.073 128.531 284.219C127.677 283.344 127 282.323 126.5 281.156C126 279.99 125.75 278.74 125.75 277.406C125.75 276.073 126 274.823 126.5 273.656C127 272.49 127.677 271.479 128.531 270.625C129.406 269.75 130.427 269.062 131.594 268.562C132.76 268.062 134.01 267.812 135.344 267.812H160.969V274.188H135.344C134.448 274.188 133.688 274.5 133.062 275.125C132.458 275.729 132.156 276.49 132.156 277.406C132.156 278.302 132.458 279.062 133.062 279.688C133.688 280.292 134.448 280.594 135.344 280.594H152.969C154.51 280.594 155.958 280.885 157.312 281.469C158.688 282.052 159.875 282.854 160.875 283.875C161.896 284.896 162.698 286.083 163.281 287.438C163.865 288.792 164.156 290.25 164.156 291.812ZM178.719 259.812C178.719 260.479 178.594 261.104 178.344 261.688C178.094 262.25 177.75 262.75 177.312 263.188C176.875 263.625 176.365 263.969 175.781 264.219C175.198 264.469 174.583 264.594 173.938 264.594C173.271 264.594 172.646 264.469 172.062 264.219C171.479 263.969 170.969 263.625 170.531 263.188C170.094 262.75 169.75 262.25 169.5 261.688C169.25 261.104 169.125 260.479 169.125 259.812C169.125 259.167 169.25 258.552 169.5 257.969C169.75 257.385 170.094 256.875 170.531 256.438C170.969 256 171.479 255.656 172.062 255.406C172.646 255.135 173.271 255 173.938 255C174.583 255 175.198 255.135 175.781 255.406C176.365 255.656 176.875 256 177.312 256.438C177.75 256.875 178.094 257.385 178.344 257.969C178.594 258.552 178.719 259.167 178.719 259.812ZM177.125 303H170.719V267.812H177.125V303ZM222.531 303H201.594C199.177 302.979 196.906 302.51 194.781 301.594C192.656 300.656 190.802 299.396 189.219 297.812C187.656 296.208 186.417 294.344 185.5 292.219C184.583 290.094 184.125 287.823 184.125 285.406C184.125 282.99 184.583 280.719 185.5 278.594C186.417 276.448 187.656 274.583 189.219 273C190.802 271.396 192.656 270.135 194.781 269.219C196.906 268.281 199.177 267.812 201.594 267.812H222.531V274.188H201.594C200.052 274.208 198.604 274.521 197.25 275.125C195.917 275.708 194.75 276.51 193.75 277.531C192.75 278.531 191.958 279.708 191.375 281.062C190.812 282.417 190.531 283.865 190.531 285.406C190.531 286.948 190.812 288.396 191.375 289.75C191.958 291.104 192.75 292.292 193.75 293.312C194.75 294.312 195.917 295.115 197.25 295.719C198.604 296.302 200.052 296.594 201.594 296.594H222.531V303Z" fill="black"/>
<circle cx="11.5" cy="145.5" r="11.5" fill="#0FA797"/>
<circle cx="47.5" cy="145.5" r="11.5" fill="#C43388"/>
<circle cx="83.5" cy="145.5" r="11.5" fill="#880FDF"/>
<circle cx="155.5" cy="145.5" r="11.5" fill="#C43388"/>
<circle cx="191.5" cy="145.5" r="11.5" fill="#FD9B4A"/>
<circle cx="227.5" cy="145.5" r="11.5" fill="#880FDF"/>
<circle cx="191.5" cy="118.5" r="11.5" fill="#FD9B4A"/>
<circle cx="155.5" cy="118.5" r="11.5" fill="#FD9B4A"/>
<circle cx="119.5" cy="118.5" r="11.5" fill="#0FA797"/>
<circle cx="83.5" cy="118.5" r="11.5" fill="#880FDF"/>
<circle cx="47.5" cy="118.5" r="11.5" fill="#FD9B4A"/>
<circle cx="191.5" cy="92.5" r="11.5" fill="#0FA797"/>
<circle cx="155.5" cy="92.5" r="11.5" fill="#880FDF"/>
<circle cx="155.5" cy="65.5" r="11.5" fill="#0FA797"/>
<circle cx="155.5" cy="38.5" r="11.5" fill="#880FDF"/>
<circle cx="119.5" cy="92.5" r="11.5" fill="#FD9B4A"/>
<circle cx="119.5" cy="65.5" r="11.5" fill="#0FA797"/>
<circle cx="83.5" cy="92.5" r="11.5" fill="#0FA797"/>
<circle cx="83.5" cy="65.5" r="11.5" fill="#C43388"/>
<circle cx="83.5" cy="38.5" r="11.5" fill="#FD9B4A"/>
<circle cx="83.5" cy="11.5" r="11.5" fill="#FD9B4A"/>
<circle cx="119.5" cy="145.5" r="11.5" fill="#C43388"/>
</svg>
