<svg width="490" height="490" viewBox="0 0 490 490" fill="none" xmlns="http://www.w3.org/2000/svg">
<rect width="490" height="490" fill="black"/>
<path d="M178.375 280.188L154.812 325H147.5L123.969 280.188H131.25L151.156 318.094L171.062 280.188H178.375ZM191.906 281.812C191.906 282.479 191.781 283.104 191.531 283.688C191.281 284.25 190.938 284.75 190.5 285.188C190.062 285.625 189.552 285.969 188.969 286.219C188.385 286.469 187.771 286.594 187.125 286.594C186.458 286.594 185.833 286.469 185.25 286.219C184.667 285.969 184.156 285.625 183.719 285.188C183.281 284.75 182.938 284.25 182.688 283.688C182.438 283.104 182.312 282.479 182.312 281.812C182.312 281.167 182.438 280.552 182.688 279.969C182.938 279.385 183.281 278.875 183.719 278.438C184.156 278 184.667 277.656 185.25 277.406C185.833 277.135 186.458 277 187.125 277C187.771 277 188.385 277.135 188.969 277.406C189.552 277.656 190.062 278 190.5 278.438C190.938 278.875 191.281 279.385 191.531 279.969C191.781 280.552 191.906 281.167 191.906 281.812ZM190.312 325H183.906V289.812H190.312V325ZM236.281 313.812C236.281 315.354 235.99 316.812 235.406 318.188C234.823 319.542 234.021 320.729 233 321.75C232 322.75 230.812 323.542 229.438 324.125C228.083 324.708 226.635 325 225.094 325H197.875V318.594H225.094C225.74 318.594 226.354 318.469 226.938 318.219C227.521 317.969 228.031 317.625 228.469 317.188C228.906 316.75 229.25 316.25 229.5 315.688C229.75 315.104 229.875 314.479 229.875 313.812C229.875 313.167 229.75 312.552 229.5 311.969C229.25 311.385 228.906 310.875 228.469 310.438C228.031 310 227.521 309.656 226.938 309.406C226.354 309.135 225.74 309 225.094 309H207.469C206.135 309 204.885 308.75 203.719 308.25C202.552 307.75 201.531 307.073 200.656 306.219C199.802 305.344 199.125 304.323 198.625 303.156C198.125 301.99 197.875 300.74 197.875 299.406C197.875 298.073 198.125 296.823 198.625 295.656C199.125 294.49 199.802 293.479 200.656 292.625C201.531 291.75 202.552 291.062 203.719 290.562C204.885 290.062 206.135 289.812 207.469 289.812H233.094V296.188H207.469C206.573 296.188 205.812 296.5 205.188 297.125C204.583 297.729 204.281 298.49 204.281 299.406C204.281 300.302 204.583 301.062 205.188 301.688C205.812 302.292 206.573 302.594 207.469 302.594H225.094C226.635 302.594 228.083 302.885 229.438 303.469C230.812 304.052 232 304.854 233 305.875C234.021 306.896 234.823 308.083 235.406 309.438C235.99 310.792 236.281 312.25 236.281 313.812ZM283.75 325H259.75C257.333 325 255.062 324.542 252.938 323.625C250.812 322.688 248.958 321.427 247.375 319.844C245.812 318.24 244.573 316.375 243.656 314.25C242.74 312.104 242.281 309.823 242.281 307.406V289.812H248.688V307.406C248.688 308.948 248.969 310.396 249.531 311.75C250.115 313.083 250.906 314.26 251.906 315.281C252.906 316.281 254.073 317.083 255.406 317.688C256.76 318.271 258.208 318.573 259.75 318.594H277.344V289.812H283.75V325ZM333.062 325H301.062C299.5 325 298.042 324.708 296.688 324.125C295.333 323.542 294.146 322.75 293.125 321.75C292.104 320.729 291.302 319.542 290.719 318.188C290.135 316.812 289.844 315.354 289.844 313.812C289.844 312.25 290.135 310.792 290.719 309.438C291.302 308.083 292.104 306.896 293.125 305.875C294.146 304.854 295.333 304.052 296.688 303.469C298.042 302.885 299.5 302.594 301.062 302.594H323.438V309H301.062C300.396 309 299.771 309.135 299.188 309.406C298.604 309.656 298.094 310 297.656 310.438C297.219 310.875 296.875 311.385 296.625 311.969C296.375 312.552 296.25 313.167 296.25 313.812C296.25 314.479 296.375 315.104 296.625 315.688C296.875 316.25 297.219 316.75 297.656 317.188C298.094 317.625 298.604 317.969 299.188 318.219C299.771 318.469 300.396 318.594 301.062 318.594H326.656V301C326.656 300.354 326.521 299.74 326.25 299.156C326 298.573 325.656 298.062 325.219 297.625C324.781 297.188 324.271 296.844 323.688 296.594C323.104 296.323 322.49 296.188 321.844 296.188H296.25V289.812H321.844C323.406 289.812 324.865 290.104 326.219 290.688C327.573 291.271 328.76 292.073 329.781 293.094C330.802 294.094 331.604 295.271 332.188 296.625C332.771 297.979 333.062 299.438 333.062 301V325ZM354.594 325H353C351.438 325 349.979 324.708 348.625 324.125C347.271 323.542 346.083 322.75 345.062 321.75C344.042 320.729 343.24 319.542 342.656 318.188C342.073 316.812 341.781 315.354 341.781 313.812V277H348.188V313.812C348.188 314.479 348.312 315.104 348.562 315.688C348.812 316.25 349.156 316.75 349.594 317.188C350.031 317.625 350.542 317.969 351.125 318.219C351.708 318.469 352.333 318.594 353 318.594H354.594V325ZM160.625 402H154.219V379.594C154.219 377.385 153.802 375.312 152.969 373.375C152.135 371.438 150.99 369.75 149.531 368.312C148.094 366.854 146.396 365.708 144.438 364.875C142.5 364.021 140.427 363.594 138.219 363.594H134.781V402H128.375V357.188H138.219C140.26 357.188 142.219 357.458 144.094 358C145.99 358.521 147.76 359.26 149.406 360.219C151.052 361.177 152.552 362.323 153.906 363.656C155.26 364.99 156.438 366.469 157.438 368.094C158.417 366.469 159.583 364.99 160.938 363.656C162.292 362.323 163.792 361.177 165.438 360.219C167.083 359.26 168.844 358.521 170.719 358C172.615 357.458 174.583 357.188 176.625 357.188H186.5V402H180.094V363.594H176.625C174.417 363.594 172.344 364.021 170.406 364.875C168.469 365.708 166.771 366.854 165.312 368.312C163.875 369.75 162.729 371.438 161.875 373.375C161.042 375.312 160.625 377.385 160.625 379.594V402ZM237.188 402H213.188C210.771 402 208.5 401.542 206.375 400.625C204.25 399.688 202.396 398.427 200.812 396.844C199.25 395.24 198.01 393.375 197.094 391.25C196.177 389.104 195.719 386.823 195.719 384.406V366.812H202.125V384.406C202.125 385.948 202.406 387.396 202.969 388.75C203.552 390.083 204.344 391.26 205.344 392.281C206.344 393.281 207.51 394.083 208.844 394.688C210.198 395.271 211.646 395.573 213.188 395.594H230.781V366.812H237.188V402ZM283.156 390.812C283.156 392.354 282.865 393.812 282.281 395.188C281.698 396.542 280.896 397.729 279.875 398.75C278.875 399.75 277.688 400.542 276.312 401.125C274.958 401.708 273.51 402 271.969 402H244.75V395.594H271.969C272.615 395.594 273.229 395.469 273.812 395.219C274.396 394.969 274.906 394.625 275.344 394.188C275.781 393.75 276.125 393.25 276.375 392.688C276.625 392.104 276.75 391.479 276.75 390.812C276.75 390.167 276.625 389.552 276.375 388.969C276.125 388.385 275.781 387.875 275.344 387.438C274.906 387 274.396 386.656 273.812 386.406C273.229 386.135 272.615 386 271.969 386H254.344C253.01 386 251.76 385.75 250.594 385.25C249.427 384.75 248.406 384.073 247.531 383.219C246.677 382.344 246 381.323 245.5 380.156C245 378.99 244.75 377.74 244.75 376.406C244.75 375.073 245 373.823 245.5 372.656C246 371.49 246.677 370.479 247.531 369.625C248.406 368.75 249.427 368.062 250.594 367.562C251.76 367.062 253.01 366.812 254.344 366.812H279.969V373.188H254.344C253.448 373.188 252.688 373.5 252.062 374.125C251.458 374.729 251.156 375.49 251.156 376.406C251.156 377.302 251.458 378.062 252.062 378.688C252.688 379.292 253.448 379.594 254.344 379.594H271.969C273.51 379.594 274.958 379.885 276.312 380.469C277.688 381.052 278.875 381.854 279.875 382.875C280.896 383.896 281.698 385.083 282.281 386.438C282.865 387.792 283.156 389.25 283.156 390.812ZM297.719 358.812C297.719 359.479 297.594 360.104 297.344 360.688C297.094 361.25 296.75 361.75 296.312 362.188C295.875 362.625 295.365 362.969 294.781 363.219C294.198 363.469 293.583 363.594 292.938 363.594C292.271 363.594 291.646 363.469 291.062 363.219C290.479 362.969 289.969 362.625 289.531 362.188C289.094 361.75 288.75 361.25 288.5 360.688C288.25 360.104 288.125 359.479 288.125 358.812C288.125 358.167 288.25 357.552 288.5 356.969C288.75 356.385 289.094 355.875 289.531 355.438C289.969 355 290.479 354.656 291.062 354.406C291.646 354.135 292.271 354 292.938 354C293.583 354 294.198 354.135 294.781 354.406C295.365 354.656 295.875 355 296.312 355.438C296.75 355.875 297.094 356.385 297.344 356.969C297.594 357.552 297.719 358.167 297.719 358.812ZM296.125 402H289.719V366.812H296.125V402ZM341.531 402H320.594C318.177 401.979 315.906 401.51 313.781 400.594C311.656 399.656 309.802 398.396 308.219 396.812C306.656 395.208 305.417 393.344 304.5 391.219C303.583 389.094 303.125 386.823 303.125 384.406C303.125 381.99 303.583 379.719 304.5 377.594C305.417 375.448 306.656 373.583 308.219 372C309.802 370.396 311.656 369.135 313.781 368.219C315.906 367.281 318.177 366.812 320.594 366.812H341.531V373.188H320.594C319.052 373.208 317.604 373.521 316.25 374.125C314.917 374.708 313.75 375.51 312.75 376.531C311.75 377.531 310.958 378.708 310.375 380.062C309.812 381.417 309.531 382.865 309.531 384.406C309.531 385.948 309.812 387.396 310.375 388.75C310.958 390.104 311.75 391.292 312.75 392.312C313.75 393.312 314.917 394.115 316.25 394.719C317.604 395.302 319.052 395.594 320.594 395.594H341.531V402Z" fill="white"/>
<circle cx="130.5" cy="244.5" r="11.5" fill="#0FA797"/>
<circle cx="166.5" cy="244.5" r="11.5" fill="#C43388"/>
<circle cx="202.5" cy="244.5" r="11.5" fill="#880FDF"/>
<circle cx="274.5" cy="244.5" r="11.5" fill="#C43388"/>
<circle cx="310.5" cy="244.5" r="11.5" fill="#FD9B4A"/>
<circle cx="346.5" cy="244.5" r="11.5" fill="#880FDF"/>
<circle cx="310.5" cy="217.5" r="11.5" fill="#FD9B4A"/>
<circle cx="274.5" cy="217.5" r="11.5" fill="#FD9B4A"/>
<circle cx="238.5" cy="217.5" r="11.5" fill="#0FA797"/>
<circle cx="202.5" cy="217.5" r="11.5" fill="#880FDF"/>
<circle cx="166.5" cy="217.5" r="11.5" fill="#FD9B4A"/>
<circle cx="310.5" cy="191.5" r="11.5" fill="#0FA797"/>
<circle cx="274.5" cy="191.5" r="11.5" fill="#880FDF"/>
<circle cx="274.5" cy="164.5" r="11.5" fill="#0FA797"/>
<circle cx="274.5" cy="137.5" r="11.5" fill="#880FDF"/>
<circle cx="238.5" cy="191.5" r="11.5" fill="#FD9B4A"/>
<circle cx="238.5" cy="164.5" r="11.5" fill="#0FA797"/>
<circle cx="202.5" cy="191.5" r="11.5" fill="#0FA797"/>
<circle cx="202.5" cy="164.5" r="11.5" fill="#C43388"/>
<circle cx="202.5" cy="137.5" r="11.5" fill="#FD9B4A"/>
<circle cx="202.5" cy="110.5" r="11.5" fill="#FD9B4A"/>
<circle cx="238.5" cy="244.5" r="11.5" fill="#C43388"/>
</svg>
