<svg width="200" height="200" viewBox="0 0 200 200" fill="none" xmlns="http://www.w3.org/2000/svg">
  <g clip-path="url(#clip0)">
    <path d="M102.607 133.998V98.9369C102.607 98.9369 91.852 95.6069 76.4889 90.6277L101.705 92.931C103.605 93.1051 105.541 92.3996 106.893 90.9193L130.416 65.147C132.744 62.5957 132.563 58.6398 130.012 56.3113C127.462 53.9827 123.506 54.1629 121.177 56.7143L99.7485 80.192L74.862 77.9505C72.8633 77.9248 70.7063 78.7413 68.9797 80.2542C66.9376 82.0674 65.6497 84.7111 65.6497 87.6568V133.017L59.4118 161.629L40.5233 186.635C37.7473 190.309 38.4764 195.539 42.1511 198.315C45.8263 201.091 51.0557 200.361 53.8312 196.687L73.8235 170.22C74.5503 169.258 75.06 168.149 75.3172 166.97L80.3786 143.754H88.3313L93.9054 159.904L93.2387 191.485C93.1416 196.089 96.7954 199.901 101.4 199.998C101.46 199.999 101.52 200 101.579 200C106.103 200 109.817 196.382 109.913 191.837L110.611 158.768C110.632 157.783 110.478 156.802 110.157 155.871L102.607 133.998Z" fill="#EEEEEE"/>
    <path d="M116.197 89.2018L122.836 88.8623C124.012 88.8022 125.147 88.4114 126.11 87.735L138.113 79.3088L130.017 74.0598L116.197 89.2018Z" fill="#EEEEEE"/>
    <path d="M69.668 57.8204C69.668 65.8066 76.1422 72.2808 84.1284 72.2808C91.5375 72.2808 97.6417 66.7071 98.4856 59.5248L70.0688 54.4434C69.809 55.5271 69.668 56.657 69.668 57.8204Z" fill="#EEEEEE"/>
    <path d="M60.1159 43.8207C112.326 53.1566 109.237 52.6269 109.812 52.6718L114.409 55.6514C115.861 54.0606 115.537 54.4162 116.956 52.8615C118.878 50.7554 121.423 49.4593 124.12 49.0793L115.896 43.7489C115.511 42.9502 116.665 44.7534 87.3175 1.77658C84.9907 -1.63396 79.7626 0.238879 79.9267 4.22698C80.5404 19.1426 80.5743 18.6029 80.4102 20.0144C79.9663 23.8358 77.9085 27.2777 74.7922 29.4805C73.0791 30.6913 73.1605 30.5307 59.3225 36.0743C55.4958 37.6081 56.2127 43.123 60.1159 43.8207ZM92.8616 21.4268C94.6626 22.5897 95.1779 24.9949 94.0115 26.7911C92.8489 28.5943 90.4438 29.1101 88.645 27.9441C86.8439 26.7811 86.3286 24.376 87.4942 22.5745C88.6571 20.7739 91.0623 20.2582 92.8616 21.4268ZM84.2225 13.4549C85.046 12.1853 86.7434 11.8215 88.016 12.6445C89.2852 13.4658 89.6491 15.1632 88.8286 16.4355C88.0052 17.7077 86.3077 18.0715 85.0355 17.2485C83.7629 16.425 83.399 14.7276 84.2225 13.4549Z" fill="#EEEEEE"/>
    <path d="M158.697 71.4898L137.3 57.6213C138.246 60.9231 137.74 64.5269 135.828 67.4578C135.514 67.9391 135.161 68.4031 134.77 68.8462L152.832 80.5519C155.315 82.1584 158.663 81.4786 160.297 78.952C161.913 76.4537 161.195 73.1063 158.697 71.4898Z" fill="#EEEEEE"/>
  </g>
  <defs>
    <clipPath id="clip0">
      <rect width="200" height="200" fill="white"/>
    </clipPath>
  </defs>
</svg>