<svg width="60" height="60" viewBox="0 0 60 60" fill="none" xmlns="http://www.w3.org/2000/svg">
  <circle cx="30" cy="30" r="30" fill="#EEEEEE"/>
  <path d="M28.9147 23.3636V20.593C28.9152 20.0022 28.5879 19.4591 28.0651 19.1842C27.5426 18.9083 26.91 18.9445 26.4223 19.2781L15.6197 26.6726C15.2328 26.9376 15.0009 27.3751 15 27.8436C14.9985 28.3123 15.2274 28.7516 15.6124 29.0186L26.413 36.5089C26.8998 36.8476 27.5343 36.8867 28.0592 36.6117C28.5845 36.3369 28.9132 35.7939 28.9137 35.201V32.8676C34.5897 33.031 39.55 35.9513 42.4097 40.3032C42.7438 40.8109 43.3822 41.0458 43.98 40.8804C44.5773 40.7151 44.9931 40.1877 44.999 39.5851C44.9995 39.5312 45 39.4774 45 39.4236C45 30.7034 37.8427 23.623 28.9147 23.3636Z" fill="#FB3600"/>
</svg>