<svg width="20" height="20" viewBox="0 0 20 20" fill="none" xmlns="http://www.w3.org/2000/svg">
<g clip-path="url(#clip0)">
<path d="M9.27646 5.59804V3.75094C9.27679 3.35709 9.0586 2.99504 8.71004 2.81179C8.36172 2.62784 7.94002 2.65197 7.61489 2.87438L0.413144 7.80406C0.155196 7.9807 0.000573649 8.2724 5.03442e-06 8.58473C-0.00101035 8.89714 0.151622 9.19002 0.40827 9.36803L7.60868 14.3616C7.93319 14.5873 8.3562 14.6134 8.7061 14.4301C9.05633 14.2469 9.27549 13.8849 9.27581 13.4896V11.934C13.0598 12.043 16.3666 13.9899 18.2731 16.8911C18.4959 17.2296 18.9215 17.3861 19.32 17.2759C19.7182 17.1657 19.9954 16.8141 19.9993 16.4124C19.9997 16.3764 20 16.3405 20 16.3047C20 10.4913 15.2285 5.77098 9.27646 5.59804Z" fill="white"/>
</g>
<defs>
<clipPath id="clip0">
<rect width="20" height="20" fill="white"/>
</clipPath>
</defs>
</svg>
