<svg width="135" height="22" viewBox="0 0 135 22" fill="none" xmlns="http://www.w3.org/2000/svg">
<path d="M7.21809 21.442C4.70476 21.442 2.46009 20.974 0.484092 20.038V17.646C2.47743 18.7033 4.72209 19.232 7.21809 19.232C8.65676 19.232 9.70543 18.9287 10.3641 18.322C11.0401 17.7153 11.3781 16.918 11.3781 15.93C11.3781 14.994 11.0661 14.292 10.4421 13.824C9.83543 13.356 8.93409 12.9487 7.73809 12.602L5.97009 12.108C4.96476 11.8133 4.10676 11.4753 3.39609 11.094C2.68543 10.7127 2.08743 10.1667 1.60209 9.456C1.13409 8.728 0.900092 7.78333 0.900092 6.622C0.900092 4.76733 1.43743 3.35467 2.51209 2.384C3.60409 1.41333 5.14676 0.928 7.14009 0.928C8.30143 0.928 9.32409 1.04067 10.2081 1.266C11.0921 1.474 12.0108 1.79467 12.9641 2.228V4.568C11.1961 3.61467 9.25476 3.138 7.14009 3.138C5.85743 3.138 4.92143 3.44133 4.33209 4.048C3.74276 4.63733 3.44809 5.452 3.44809 6.492C3.46543 7.44533 3.75143 8.14733 4.30609 8.598C4.87809 9.04867 5.76209 9.44733 6.95809 9.794L8.75209 10.288C9.80943 10.5827 10.7021 10.9293 11.4301 11.328C12.1754 11.7093 12.7734 12.2727 13.2241 13.018C13.6921 13.746 13.9261 14.6993 13.9261 15.878C13.9088 17.594 13.3021 18.9547 12.1061 19.96C10.9274 20.948 9.29809 21.442 7.21809 21.442ZM33.7271 6.622V21H31.2831V19.466C29.8618 20.6967 28.3971 21.312 26.8891 21.312C25.1211 21.312 23.8038 20.844 22.9371 19.908C22.0878 18.972 21.6631 17.438 21.6631 15.306V6.622H24.1071V15.306C24.1071 16.658 24.3325 17.62 24.7831 18.192C25.2511 18.764 26.0658 19.05 27.2271 19.05C28.5791 19.05 29.9311 18.4607 31.2831 17.282V6.622H33.7271ZM48.3826 21.442C46.1466 21.4247 44.4219 20.7313 43.2086 19.362C42.0126 17.9927 41.4146 16.138 41.4146 13.798C41.4146 11.458 42.0126 9.612 43.2086 8.26C44.4219 6.908 46.1466 6.22333 48.3826 6.206C49.1626 6.206 49.8299 6.26667 50.3846 6.388C50.9566 6.492 51.5633 6.674 52.2046 6.934V9.3C51.5806 9.00533 50.9826 8.79733 50.4106 8.676C49.8559 8.55467 49.2406 8.494 48.5646 8.494C46.9526 8.51133 45.7826 8.99667 45.0546 9.95C44.3266 10.886 43.9626 12.16 43.9626 13.772C43.9626 15.4187 44.3266 16.7273 45.0546 17.698C45.7826 18.6687 46.9353 19.1627 48.5126 19.18C49.7433 19.18 51.0866 18.8073 52.5426 18.062L53.3226 20.194C51.7453 21.026 50.0986 21.442 48.3826 21.442ZM66.476 21.442C64.24 21.4247 62.5153 20.7313 61.302 19.362C60.106 17.9927 59.508 16.138 59.508 13.798C59.508 11.458 60.106 9.612 61.302 8.26C62.5153 6.908 64.24 6.22333 66.476 6.206C67.256 6.206 67.9233 6.26667 68.478 6.388C69.05 6.492 69.6566 6.674 70.298 6.934V9.3C69.674 9.00533 69.076 8.79733 68.504 8.676C67.9493 8.55467 67.334 8.494 66.658 8.494C65.046 8.51133 63.876 8.99667 63.148 9.95C62.42 10.886 62.056 12.16 62.056 13.772C62.056 15.4187 62.42 16.7273 63.148 17.698C63.876 18.6687 65.0286 19.1627 66.606 19.18C67.8366 19.18 69.18 18.8073 70.636 18.062L71.416 20.194C69.8386 21.026 68.192 21.442 66.476 21.442ZM80.1493 14.006C80.184 15.6007 80.5826 16.8747 81.3453 17.828C82.108 18.7813 83.3213 19.258 84.9853 19.258C86.2506 19.258 87.6373 18.9027 89.1453 18.192L89.8993 20.22C88.322 21.0347 86.6146 21.442 84.7773 21.442C83.252 21.442 81.952 21.1213 80.8773 20.48C79.8026 19.8387 78.988 18.946 78.4333 17.802C77.8786 16.658 77.6013 15.3233 77.6013 13.798C77.6013 12.186 77.8873 10.8167 78.4593 9.69C79.0486 8.546 79.8373 7.67933 80.8253 7.09C81.8133 6.50067 82.9226 6.206 84.1533 6.206C86.0426 6.206 87.5246 6.79533 88.5993 7.974C89.674 9.15267 90.2113 10.8427 90.2113 13.044V14.006H80.1493ZM84.1533 8.39C82.004 8.39 80.7213 9.57733 80.3053 11.952H87.6373C87.5506 10.7387 87.2213 9.846 86.6493 9.274C86.0773 8.68467 85.2453 8.39 84.1533 8.39ZM101.962 21.442C100.905 21.442 99.969 21.3553 99.1543 21.182C98.3396 21.0087 97.4903 20.714 96.6063 20.298V17.88C98.253 18.7987 100.038 19.258 101.962 19.258C102.933 19.258 103.626 19.0673 104.042 18.686C104.476 18.2873 104.692 17.7673 104.692 17.126C104.692 16.502 104.519 16.0427 104.172 15.748C103.843 15.4533 103.297 15.202 102.534 14.994L100.844 14.578C99.631 14.2833 98.6776 13.8153 97.9843 13.174C97.291 12.5327 96.9443 11.588 96.9443 10.34C96.9443 9.04 97.369 8.026 98.2183 7.298C99.0676 6.57 100.316 6.206 101.962 6.206C102.812 6.206 103.6 6.29267 104.328 6.466C105.056 6.622 105.784 6.84733 106.512 7.142V9.43C105.802 9.10067 105.1 8.84933 104.406 8.676C103.713 8.48533 102.924 8.39 102.04 8.39C101.122 8.39 100.454 8.572 100.038 8.936C99.6396 9.28267 99.4403 9.72467 99.4403 10.262C99.4403 10.8513 99.6136 11.302 99.9603 11.614C100.324 11.9087 100.844 12.1427 101.52 12.316L103.236 12.706C104.103 12.914 104.814 13.174 105.368 13.486C105.94 13.798 106.382 14.24 106.694 14.812C107.024 15.3667 107.188 16.112 107.188 17.048C107.188 18.452 106.712 19.5353 105.758 20.298C104.822 21.0607 103.557 21.442 101.962 21.442ZM119.218 21.442C118.16 21.442 117.224 21.3553 116.41 21.182C115.595 21.0087 114.746 20.714 113.862 20.298V17.88C115.508 18.7987 117.294 19.258 119.218 19.258C120.188 19.258 120.882 19.0673 121.298 18.686C121.731 18.2873 121.948 17.7673 121.948 17.126C121.948 16.502 121.774 16.0427 121.428 15.748C121.098 15.4533 120.552 15.202 119.79 14.994L118.1 14.578C116.886 14.2833 115.933 13.8153 115.24 13.174C114.546 12.5327 114.2 11.588 114.2 10.34C114.2 9.04 114.624 8.026 115.474 7.298C116.323 6.57 117.571 6.206 119.218 6.206C120.067 6.206 120.856 6.29267 121.584 6.466C122.312 6.622 123.04 6.84733 123.768 7.142V9.43C123.057 9.10067 122.355 8.84933 121.662 8.676C120.968 8.48533 120.18 8.39 119.296 8.39C118.377 8.39 117.71 8.572 117.294 8.936C116.895 9.28267 116.696 9.72467 116.696 10.262C116.696 10.8513 116.869 11.302 117.216 11.614C117.58 11.9087 118.1 12.1427 118.776 12.316L120.492 12.706C121.358 12.914 122.069 13.174 122.624 13.486C123.196 13.798 123.638 14.24 123.95 14.812C124.279 15.3667 124.444 16.112 124.444 17.048C124.444 18.452 123.967 19.5353 123.014 20.298C122.078 21.0607 120.812 21.442 119.218 21.442ZM132.001 1.292H134.913L134.523 15.02H132.391L132.001 1.292ZM132.105 16.892H134.809V21H132.105V16.892Z" fill="#EEEEEE"/>
</svg>
