<svg width="40" height="40" viewBox="0 0 40 40" fill="none" xmlns="http://www.w3.org/2000/svg">
<path d="M38.5 20C38.5 30.2173 30.2172 38.5 20 38.5C9.78272 38.5 1.5 30.2173 1.5 20C1.5 9.78273 9.78272 1.5 20 1.5C30.2172 1.5 38.5 9.78273 38.5 20Z" stroke="white" stroke-width="3"/>
<path d="M15.9326 29H11.0205V15.7642H15.9326V29Z" fill="white"/>
<path d="M30 29H25.1876L25.1897 23.1446C25.2099 22.1942 24.8263 21.4102 24.1636 21.0475C23.7087 20.7983 23.1851 20.7976 22.6939 21.0376L22.6514 29H17.615V15.7642H22.6544V16.3021C24.2201 15.6673 25.8804 15.7589 27.3233 16.5842C28.9494 17.5144 30 19.2342 30 20.9656V29Z" fill="white"/>
<path d="M13.4664 14.9376C12.1063 14.9376 11 13.8302 11 12.4688C11 11.1075 12.1063 10 13.4664 10C14.8262 10 15.9325 11.1075 15.9325 12.4688C15.9325 13.8302 14.8262 14.9376 13.4664 14.9376Z" fill="white"/>
</svg>
