<svg width="40" height="40" viewBox="0 0 40 40" fill="none" xmlns="http://www.w3.org/2000/svg">
<path d="M38.5 20C38.5 30.2173 30.2172 38.5 20 38.5C9.78272 38.5 1.5 30.2173 1.5 20C1.5 9.78273 9.78272 1.5 20 1.5C30.2172 1.5 38.5 9.78273 38.5 20Z" stroke="white" stroke-width="3"/>
<path d="M20 10C14.5074 10 10 14.5074 10 20C10 24.687 13.2889 28.9447 17.6562 30V26.6916C17.2235 26.7863 16.8253 26.7891 16.3847 26.6592C15.7938 26.4848 15.3136 26.0912 14.9571 25.4909C14.7299 25.1076 14.3272 24.6919 13.9072 24.7224L13.8042 23.5551C14.7125 23.4773 15.4984 24.1086 15.9648 24.8923C16.172 25.2408 16.4105 25.4451 16.7166 25.5354C17.0125 25.6226 17.3302 25.5807 17.7003 25.45C17.7933 24.7089 18.1328 24.4315 18.3893 24.0408V24.0402C15.7846 23.6517 14.7466 22.2699 14.3346 21.1792C13.7886 19.731 14.0816 17.9218 15.047 16.7784C15.0658 16.7561 15.0996 16.6978 15.0865 16.6571C14.6439 15.32 15.1833 14.2139 15.2031 14.0965C15.714 14.2476 15.797 13.9445 17.4222 14.9319L17.7031 15.1007C17.8206 15.1707 17.7837 15.1308 17.9012 15.1219C18.5797 14.9376 19.295 14.8358 19.9998 14.8267C20.71 14.8358 21.4207 14.9376 22.1274 15.1294L22.2183 15.1385C22.2104 15.1373 22.243 15.1328 22.2978 15.1001C24.328 13.8704 24.2551 14.2723 24.7995 14.0953C24.8192 14.2128 25.3514 15.3369 24.9135 16.6571C24.8544 16.839 26.6736 18.5048 25.6653 21.1787C25.2533 22.2699 24.2154 23.6517 21.6107 24.0402V24.0408C21.9446 24.5497 22.3457 24.8204 22.3436 25.8702V30C26.7111 28.9447 29.9998 24.687 29.9998 20C30 14.5074 25.4926 10 20 10V10Z" fill="white"/>
</svg>
