<svg width="40" height="40" viewBox="0 0 40 40" fill="none" xmlns="http://www.w3.org/2000/svg">
<path d="M38.5 20C38.5 30.2173 30.2172 38.5 20 38.5C9.78272 38.5 1.5 30.2173 1.5 20C1.5 9.78273 9.78272 1.5 20 1.5C30.2172 1.5 38.5 9.78273 38.5 20Z" stroke="white" stroke-width="3"/>
<path d="M29.5177 28.9375L23.3579 25.9763L23.3115 12.553C23.3105 12.2396 23.6376 12.0331 23.92 12.1689L29.7597 14.9771C29.9067 15.0478 30.0002 15.1965 30.0002 15.3596V28.634C30.0002 28.8821 29.7412 29.045 29.5177 28.9375Z" fill="white" fill-opacity="0.7"/>
<path d="M23.3575 25.9765L16.6908 22.7711L10.5802 12.8206C10.41 12.5433 10.7062 12.2151 10.9994 12.3561L16.6908 15.0929L23.3575 25.9765Z" fill="white" fill-opacity="0.9"/>
<path d="M16.2085 28.9375L10.1908 26.0438C10.0741 25.9877 10 25.8697 10 25.7403V12.3939C10 12.1537 10.2509 11.9959 10.4674 12.1L16.691 15.0928V28.634C16.691 28.8821 16.432 29.045 16.2085 28.9375Z" fill="white"/>
<path d="M23.3576 25.9763L16.6909 22.7709L23.109 12.2042C23.2223 12.0175 23.4589 11.9473 23.6557 12.042L29.577 14.8894C29.8034 14.9983 29.8863 15.2787 29.7554 15.4931L23.3576 25.9763Z" fill="white" fill-opacity="0.8"/>
</svg>
