<svg width="184" height="221" viewBox="0 0 184 221" fill="none" xmlns="http://www.w3.org/2000/svg">
<path d="M43.3532 132.154L26.1488 164.838H20.8095L3.62799 132.154H8.94446L23.4791 159.801L38.0139 132.154H43.3532ZM53.2331 133.338C53.2331 133.825 53.1418 134.28 52.9593 134.706C52.7768 135.116 52.5258 135.481 52.2064 135.8C51.8869 136.119 51.5142 136.37 51.0883 136.552C50.6624 136.735 50.2136 136.826 49.7421 136.826C49.2553 136.826 48.7989 136.735 48.373 136.552C47.9471 136.37 47.5744 136.119 47.255 135.8C46.9355 135.481 46.6845 135.116 46.502 134.706C46.3195 134.28 46.2282 133.825 46.2282 133.338C46.2282 132.868 46.3195 132.419 46.502 131.994C46.6845 131.568 46.9355 131.196 47.255 130.877C47.5744 130.558 47.9471 130.307 48.373 130.124C48.7989 129.927 49.2553 129.828 49.7421 129.828C50.2136 129.828 50.6624 129.927 51.0883 130.124C51.5142 130.307 51.8869 130.558 52.2064 130.877C52.5258 131.196 52.7768 131.568 52.9593 131.994C53.1418 132.419 53.2331 132.868 53.2331 133.338ZM52.0695 164.838H47.3918V139.173H52.0695V164.838ZM85.6338 156.678C85.6338 157.803 85.4213 158.866 84.9949 159.87C84.5692 160.857 83.9836 161.723 83.2381 162.468C82.508 163.197 81.6405 163.775 80.6373 164.2C79.6479 164.625 78.5907 164.838 77.4655 164.838H57.5913V160.166H77.4655C77.9372 160.166 78.3855 160.075 78.8119 159.892C79.2376 159.71 79.61 159.459 79.9298 159.14C80.2488 158.821 80.5 158.456 80.6826 158.046C80.8651 157.62 80.9564 157.165 80.9564 156.678C80.9564 156.208 80.8651 155.759 80.6826 155.334C80.5 154.908 80.2488 154.536 79.9298 154.217C79.61 153.898 79.2376 153.647 78.8119 153.464C78.3855 153.267 77.9372 153.168 77.4655 153.168H64.5963C63.6227 153.168 62.71 152.986 61.8582 152.621C61.0063 152.257 60.2609 151.763 59.622 151.14C58.9984 150.502 58.504 149.757 58.1389 148.906C57.7738 148.055 57.5913 147.144 57.5913 146.171C57.5913 145.198 57.7738 144.287 58.1389 143.436C58.504 142.585 58.9984 141.848 59.622 141.225C60.2609 140.587 61.0063 140.085 61.8582 139.72C62.71 139.355 63.6227 139.173 64.5963 139.173H83.3067V143.824H64.5963C63.9421 143.824 63.3869 144.051 62.9306 144.507C62.4894 144.948 62.2688 145.503 62.2688 146.171C62.2688 146.824 62.4894 147.379 62.9306 147.835C63.3869 148.276 63.9421 148.496 64.5963 148.496H77.4655C78.5907 148.496 79.6479 148.708 80.6373 149.134C81.6405 149.559 82.508 150.144 83.2381 150.889C83.9836 151.634 84.5692 152.499 84.9949 153.488C85.4213 154.475 85.6338 155.539 85.6338 156.678ZM120.294 164.838H102.77C101.005 164.838 99.3469 164.504 97.796 163.835C96.2437 163.152 94.89 162.232 93.7341 161.078C92.5929 159.908 91.6882 158.547 91.0187 156.998C90.3499 155.432 90.0147 153.769 90.0147 152.006V139.173H94.6928V152.006C94.6928 153.13 94.898 154.187 95.3084 155.174C95.7348 156.146 96.3123 157.005 97.0425 157.749C97.7727 158.479 98.6248 159.064 99.5981 159.505C100.587 159.93 101.644 160.151 102.77 160.166H115.616V139.173H120.294V164.838ZM156.299 164.838H132.934C131.794 164.838 130.729 164.625 129.74 164.2C128.751 163.775 127.884 163.197 127.139 162.468C126.393 161.723 125.808 160.857 125.382 159.87C124.956 158.866 124.743 157.803 124.743 156.678C124.743 155.539 124.956 154.475 125.382 153.488C125.808 152.499 126.393 151.634 127.139 150.889C127.884 150.144 128.751 149.559 129.74 149.134C130.729 148.708 131.794 148.496 132.934 148.496H149.272V153.168H132.934C132.448 153.168 131.992 153.267 131.566 153.464C131.139 153.647 130.767 153.898 130.447 154.217C130.128 154.536 129.877 154.908 129.694 155.334C129.512 155.759 129.421 156.208 129.421 156.678C129.421 157.165 129.512 157.62 129.694 158.046C129.877 158.456 130.128 158.821 130.447 159.14C130.767 159.459 131.139 159.71 131.566 159.892C131.992 160.075 132.448 160.166 132.934 160.166H151.622V147.333C151.622 146.862 151.523 146.414 151.325 145.988C151.143 145.563 150.892 145.19 150.573 144.872C150.253 144.553 149.88 144.302 149.455 144.12C149.028 143.922 148.58 143.824 148.108 143.824H129.421V139.173H148.108C149.249 139.173 150.314 139.386 151.303 139.812C152.291 140.237 153.158 140.822 153.904 141.567C154.649 142.296 155.235 143.155 155.661 144.142C156.087 145.13 156.299 146.194 156.299 147.333V164.838ZM172.021 164.838H170.857C169.717 164.838 168.651 164.625 167.663 164.2C166.674 163.775 165.807 163.197 165.061 162.468C164.316 161.723 163.731 160.857 163.304 159.87C162.879 158.866 162.666 157.803 162.666 156.678V129.828H167.344V156.678C167.344 157.165 167.434 157.62 167.617 158.046C167.799 158.456 168.05 158.821 168.37 159.14C168.689 159.459 169.062 159.71 169.488 159.892C169.914 160.075 170.37 160.166 170.857 160.166H172.021V164.838ZM30.3929 221H25.7153V204.658C25.7153 203.046 25.4111 201.534 24.8026 200.122C24.1941 198.709 23.3575 197.478 22.2926 196.429C21.2431 195.365 20.0033 194.53 18.5734 193.922C17.1587 193.299 15.6452 192.988 14.0328 192.988H11.5228V221H6.84525V188.315H14.0328C15.5235 188.315 16.9534 188.512 18.3225 188.908C19.7067 189.288 20.9997 189.827 22.2014 190.526C23.4031 191.225 24.4984 192.061 25.4871 193.033C26.4759 194.006 27.3353 195.085 28.0655 196.27C28.7805 195.085 29.6323 194.006 30.621 193.033C31.6098 192.061 32.7051 191.225 33.9068 190.526C35.1085 189.827 36.3939 189.288 37.7629 188.908C39.1472 188.512 40.5846 188.315 42.0754 188.315H49.2857V221H44.6082V192.988H42.0754C40.463 192.988 38.9495 193.299 37.5347 193.922C36.1201 194.53 34.8803 195.365 33.8155 196.429C32.7659 197.478 31.9293 198.709 31.3056 200.122C30.6971 201.534 30.3929 203.046 30.3929 204.658V221ZM86.296 221H68.7718C67.0073 221 65.3492 220.666 63.7976 219.997C62.246 219.314 60.8922 218.394 59.7361 217.239C58.5953 216.069 57.6902 214.709 57.0209 213.159C56.3516 211.594 56.0169 209.93 56.0169 208.167V195.335H60.6945V208.167C60.6945 209.292 60.8998 210.348 61.3106 211.336C61.7365 212.308 62.3145 213.167 63.0447 213.911C63.7749 214.641 64.6267 215.226 65.6003 215.667C66.589 216.092 67.6462 216.312 68.7718 216.328H81.6179V195.335H86.296V221ZM119.86 212.84C119.86 213.964 119.647 215.028 119.221 216.031C118.795 217.019 118.21 217.885 117.464 218.63C116.734 219.359 115.867 219.937 114.863 220.362C113.874 220.787 112.817 221 111.692 221H91.8175V216.328H111.692C112.163 216.328 112.612 216.236 113.037 216.054C113.464 215.872 113.836 215.621 114.156 215.302C114.475 214.983 114.726 214.618 114.909 214.208C115.091 213.782 115.183 213.326 115.183 212.84C115.183 212.369 115.091 211.921 114.909 211.496C114.726 211.07 114.475 210.698 114.156 210.379C113.836 210.059 113.464 209.808 113.037 209.626C112.612 209.428 112.163 209.33 111.692 209.33H98.8226C97.8486 209.33 96.9359 209.148 96.0845 208.783C95.2324 208.418 94.4869 207.925 93.8481 207.302C93.2245 206.663 92.7302 205.919 92.3651 205.068C92 204.217 91.8175 203.305 91.8175 202.332C91.8175 201.36 92 200.448 92.3651 199.597C92.7302 198.747 93.2245 198.009 93.8481 197.387C94.4869 196.748 95.2324 196.247 96.0845 195.882C96.9359 195.517 97.8486 195.335 98.8226 195.335H117.533V199.985H98.8226C98.1684 199.985 97.6135 200.213 97.1564 200.669C96.7154 201.109 96.4949 201.664 96.4949 202.332C96.4949 202.986 96.7154 203.54 97.1564 203.997C97.6135 204.437 98.1684 204.658 98.8226 204.658H111.692C112.817 204.658 113.874 204.87 114.863 205.296C115.867 205.721 116.734 206.306 117.464 207.051C118.21 207.795 118.795 208.661 119.221 209.649C119.647 210.637 119.86 211.7 119.86 212.84ZM130.493 189.5C130.493 189.986 130.402 190.442 130.219 190.868C130.037 191.278 129.786 191.643 129.466 191.962C129.147 192.281 128.774 192.532 128.348 192.714C127.922 192.897 127.473 192.988 127.002 192.988C126.515 192.988 126.059 192.897 125.633 192.714C125.207 192.532 124.835 192.281 124.515 191.962C124.196 191.643 123.944 191.278 123.762 190.868C123.579 190.442 123.488 189.986 123.488 189.5C123.488 189.029 123.579 188.581 123.762 188.156C123.944 187.73 124.196 187.358 124.515 187.039C124.835 186.719 125.207 186.469 125.633 186.286C126.059 186.089 126.515 185.99 127.002 185.99C127.473 185.99 127.922 186.089 128.348 186.286C128.774 186.469 129.147 186.719 129.466 187.039C129.786 187.358 130.037 187.73 130.219 188.156C130.402 188.581 130.493 189.029 130.493 189.5ZM129.329 221H124.652V195.335H129.329V221ZM162.483 221H147.196C145.431 220.985 143.773 220.643 142.221 219.974C140.669 219.29 139.316 218.371 138.16 217.216C137.019 216.046 136.114 214.687 135.444 213.137C134.775 211.587 134.44 209.93 134.44 208.167C134.44 206.405 134.775 204.749 135.444 203.199C136.114 201.634 137.019 200.273 138.16 199.119C139.316 197.949 140.669 197.029 142.221 196.361C143.773 195.677 145.431 195.335 147.196 195.335H162.483V199.985H147.196C146.07 200 145.012 200.228 144.024 200.669C143.051 201.094 142.198 201.679 141.468 202.424C140.738 203.153 140.16 204.011 139.734 204.999C139.323 205.987 139.118 207.043 139.118 208.167C139.118 209.292 139.323 210.348 139.734 211.336C140.16 212.323 140.738 213.19 141.468 213.934C142.198 214.663 143.051 215.249 144.024 215.689C145.012 216.115 146.07 216.328 147.196 216.328H162.483V221Z" fill="white"/>
<path d="M8.39683 114.512C13.0343 114.512 16.7937 110.756 16.7937 106.124C16.7937 101.491 13.0343 97.736 8.39683 97.736C3.75939 97.736 0 101.491 0 106.124C0 110.756 3.75939 114.512 8.39683 114.512Z" fill="#0FA797"/>
<path d="M34.6825 114.512C39.32 114.512 43.0794 110.756 43.0794 106.124C43.0794 101.491 39.32 97.736 34.6825 97.736C30.0451 97.736 26.2857 101.491 26.2857 106.124C26.2857 110.756 30.0451 114.512 34.6825 114.512Z" fill="#C43388"/>
<path d="M60.9682 114.512C65.6057 114.512 69.3651 110.756 69.3651 106.124C69.3651 101.491 65.6057 97.736 60.9682 97.736C56.3308 97.736 52.5714 101.491 52.5714 106.124C52.5714 110.756 56.3308 114.512 60.9682 114.512Z" fill="#880FDF"/>
<path d="M113.54 114.512C118.177 114.512 121.937 110.756 121.937 106.124C121.937 101.491 118.177 97.736 113.54 97.736C108.902 97.736 105.143 101.491 105.143 106.124C105.143 110.756 108.902 114.512 113.54 114.512Z" fill="#C43388"/>
<path d="M139.825 114.512C144.463 114.512 148.222 110.756 148.222 106.124C148.222 101.491 144.463 97.736 139.825 97.736C135.188 97.736 131.429 101.491 131.429 106.124C131.429 110.756 135.188 114.512 139.825 114.512Z" fill="#FD9B4A"/>
<path d="M166.111 114.512C170.749 114.512 174.508 110.756 174.508 106.124C174.508 101.491 170.749 97.736 166.111 97.736C161.474 97.736 157.714 101.491 157.714 106.124C157.714 110.756 161.474 114.512 166.111 114.512Z" fill="#880FDF"/>
<path d="M139.825 94.8185C144.463 94.8185 148.222 91.0631 148.222 86.4307C148.222 81.7982 144.463 78.0429 139.825 78.0429C135.188 78.0429 131.429 81.7982 131.429 86.4307C131.429 91.0631 135.188 94.8185 139.825 94.8185Z" fill="#FD9B4A"/>
<path d="M113.54 94.8185C118.177 94.8185 121.937 91.0631 121.937 86.4307C121.937 81.7982 118.177 78.0429 113.54 78.0429C108.902 78.0429 105.143 81.7982 105.143 86.4307C105.143 91.0631 108.902 94.8185 113.54 94.8185Z" fill="#FD9B4A"/>
<path d="M87.254 94.8185C91.8914 94.8185 95.6508 91.0631 95.6508 86.4307C95.6508 81.7982 91.8914 78.0429 87.254 78.0429C82.6166 78.0429 78.8572 81.7982 78.8572 86.4307C78.8572 91.0631 82.6166 94.8185 87.254 94.8185Z" fill="#0FA797"/>
<path d="M60.9682 94.8185C65.6057 94.8185 69.3651 91.0631 69.3651 86.4307C69.3651 81.7982 65.6057 78.0429 60.9682 78.0429C56.3308 78.0429 52.5714 81.7982 52.5714 86.4307C52.5714 91.0631 56.3308 94.8185 60.9682 94.8185Z" fill="#880FDF"/>
<path d="M34.6825 94.8185C39.32 94.8185 43.0794 91.0631 43.0794 86.4307C43.0794 81.7982 39.32 78.0429 34.6825 78.0429C30.0451 78.0429 26.2857 81.7982 26.2857 86.4307C26.2857 91.0631 30.0451 94.8185 34.6825 94.8185Z" fill="#FD9B4A"/>
<path d="M139.825 75.8548C144.463 75.8548 148.222 72.0995 148.222 67.467C148.222 62.8346 144.463 59.0792 139.825 59.0792C135.188 59.0792 131.429 62.8346 131.429 67.467C131.429 72.0995 135.188 75.8548 139.825 75.8548Z" fill="#0FA797"/>
<path d="M113.54 75.8548C118.177 75.8548 121.937 72.0995 121.937 67.467C121.937 62.8346 118.177 59.0792 113.54 59.0792C108.902 59.0792 105.143 62.8346 105.143 67.467C105.143 72.0995 108.902 75.8548 113.54 75.8548Z" fill="#880FDF"/>
<path d="M113.54 56.1617C118.177 56.1617 121.937 52.4064 121.937 47.7739C121.937 43.1415 118.177 39.3861 113.54 39.3861C108.902 39.3861 105.143 43.1415 105.143 47.7739C105.143 52.4064 108.902 56.1617 113.54 56.1617Z" fill="#0FA797"/>
<path d="M113.54 36.4686C118.177 36.4686 121.937 32.7133 121.937 28.0808C121.937 23.4484 118.177 19.6931 113.54 19.6931C108.902 19.6931 105.143 23.4484 105.143 28.0808C105.143 32.7133 108.902 36.4686 113.54 36.4686Z" fill="#880FDF"/>
<path d="M87.254 75.8548C91.8914 75.8548 95.6508 72.0995 95.6508 67.467C95.6508 62.8346 91.8914 59.0792 87.254 59.0792C82.6166 59.0792 78.8572 62.8346 78.8572 67.467C78.8572 72.0995 82.6166 75.8548 87.254 75.8548Z" fill="#FD9B4A"/>
<path d="M87.254 56.1617C91.8914 56.1617 95.6508 52.4064 95.6508 47.7739C95.6508 43.1415 91.8914 39.3861 87.254 39.3861C82.6166 39.3861 78.8572 43.1415 78.8572 47.7739C78.8572 52.4064 82.6166 56.1617 87.254 56.1617Z" fill="#0FA797"/>
<path d="M60.9682 75.8548C65.6057 75.8548 69.3651 72.0995 69.3651 67.467C69.3651 62.8346 65.6057 59.0792 60.9682 59.0792C56.3308 59.0792 52.5714 62.8346 52.5714 67.467C52.5714 72.0995 56.3308 75.8548 60.9682 75.8548Z" fill="#0FA797"/>
<path d="M60.9682 56.1617C65.6057 56.1617 69.3651 52.4064 69.3651 47.7739C69.3651 43.1415 65.6057 39.3861 60.9682 39.3861C56.3308 39.3861 52.5714 43.1415 52.5714 47.7739C52.5714 52.4064 56.3308 56.1617 60.9682 56.1617Z" fill="#C43388"/>
<path d="M60.9682 36.4686C65.6057 36.4686 69.3651 32.7133 69.3651 28.0808C69.3651 23.4484 65.6057 19.6931 60.9682 19.6931C56.3308 19.6931 52.5714 23.4484 52.5714 28.0808C52.5714 32.7133 56.3308 36.4686 60.9682 36.4686Z" fill="#FD9B4A"/>
<path d="M60.9682 16.7756C65.6057 16.7756 69.3651 13.0202 69.3651 8.38779C69.3651 3.75534 65.6057 0 60.9682 0C56.3308 0 52.5714 3.75534 52.5714 8.38779C52.5714 13.0202 56.3308 16.7756 60.9682 16.7756Z" fill="#FD9B4A"/>
<path d="M87.254 114.512C91.8914 114.512 95.6508 110.756 95.6508 106.124C95.6508 101.491 91.8914 97.736 87.254 97.736C82.6166 97.736 78.8572 101.491 78.8572 106.124C78.8572 110.756 82.6166 114.512 87.254 114.512Z" fill="#C43388"/>
</svg>