<svg width="43" height="37" viewBox="0 0 43 37" fill="none" xmlns="http://www.w3.org/2000/svg">
<g id="download-icon">
<path id="&#239;&#131;&#173;" d="M28.5714 23.4286C28.5714 23.6295 28.4821 23.808 28.3482 23.9643L20.5134 31.7991C20.3795 31.933 20.1786 32 20 32C19.7991 32 19.6205 31.933 19.4866 31.7991L11.6295 23.942C11.4955 23.808 11.4286 23.6071 11.4286 23.4286C11.4286 23.0491 11.7411 22.7143 12.1429 22.7143H17.1429V14.8571C17.1429 14.4777 17.4777 14.1429 17.8571 14.1429H22.1429C22.5223 14.1429 22.8571 14.4777 22.8571 14.8571V22.7143H27.8571C28.2589 22.7143 28.5714 23.0268 28.5714 23.4286ZM42.8571 28.4286C42.8571 24.4554 40.1116 20.9955 36.2277 20.0804C36.8304 19.1652 37.1429 18.0937 37.1429 17C37.1429 13.8527 34.5759 11.2857 31.4286 11.2857C30.067 11.2857 28.75 11.7768 27.7232 12.6696C25.9598 8.38393 21.7857 5.57143 17.1429 5.57143C10.8259 5.57143 5.71429 10.683 5.71429 17C5.71429 17.3125 5.73661 17.625 5.75893 17.9598C2.25446 19.5893 0 23.1161 0 27C0 32.5134 4.48661 37 10 37H34.2857C39.0179 37 42.8571 33.1607 42.8571 28.4286Z" fill="white"/>
</g>
</svg>
