<svg width="43" height="38" viewBox="0 0 43 38" fill="none" xmlns="http://www.w3.org/2000/svg">
<g id="Group">
<g id="print">
<path id="Vector" d="M35.8889 10.5556H6.33333C2.74444 10.5556 0 13.3 0 16.8889V29.5556H8.44444V38H33.7778V29.5556H42.2222V16.8889C42.2222 13.3 39.4778 10.5556 35.8889 10.5556ZM29.5556 33.7778H12.6667V23.2222H29.5556V33.7778ZM35.8889 19C34.6222 19 33.7778 18.1556 33.7778 16.8889C33.7778 15.6222 34.6222 14.7778 35.8889 14.7778C37.1556 14.7778 38 15.6222 38 16.8889C38 18.1556 37.1556 19 35.8889 19ZM33.7778 0H8.44444V8.44444H33.7778V0Z" fill="white"/>
</g>
</g>
</svg>
