<svg width="40" height="40" viewBox="0 0 40 40" fill="none" xmlns="http://www.w3.org/2000/svg">
<g id="share-icon">
<g id="white">
<g id="Group">
<path id="Vector" d="M32.3681 25.4225C30.0523 25.4225 28.0097 26.5258 26.6751 28.2154L14.297 21.8852C14.459 21.2808 14.5755 20.6563 14.5755 19.9991C14.5755 19.2836 14.4372 18.61 14.2442 17.9546L26.5677 11.6536C27.8949 13.4196 29.9904 14.5738 32.3699 14.5738C36.4007 14.5738 39.6613 11.3132 39.6613 7.28602C39.6614 3.26249 36.4007 0 32.37 0C28.3483 0 25.084 3.26249 25.084 7.28594C25.084 7.94502 25.2006 8.57127 25.3644 9.17752L12.988 15.5077C11.6517 13.8164 9.60534 12.7095 7.28594 12.7095C3.25878 12.7095 0 15.9738 0 19.9991C0 24.0244 3.25886 27.2869 7.28594 27.2869C9.66907 27.2869 11.7628 26.129 13.0954 24.3612L25.4134 30.6622C25.2204 31.3158 25.0803 31.9949 25.0803 32.7122C25.0803 36.7375 28.3446 40 32.3662 40C36.397 40 39.6577 36.7375 39.6577 32.7122C39.6595 28.6833 36.3989 25.4225 32.3681 25.4225Z" fill="white"/>
</g>
</g>
</g>
</svg>
