<svg width="41" height="37" viewBox="0 0 41 37" fill="none" xmlns="http://www.w3.org/2000/svg">
<g id="snapshot-icon-white-dark">
<g id="snapshot-icon-white-dark_2">
<g id="snapshot-icon-white">
<path id="Vector" d="M20.3499 27.1336C23.9464 27.1336 26.8619 24.1886 26.8619 20.5558C26.8619 16.923 23.9464 13.978 20.3499 13.978C16.7534 13.978 13.8379 16.923 13.8379 20.5558C13.8379 24.1886 16.7534 27.1336 20.3499 27.1336Z" fill="white"/>
<path id="Vector_2" d="M14.2448 0L10.5208 4.11111H4.06995C1.83148 4.11111 0 5.96111 0 8.22222V32.8889C0 35.15 1.83148 37 4.06995 37H36.6296C38.8681 37 40.6995 35.15 40.6995 32.8889V8.22222C40.6995 5.96111 38.8681 4.11111 36.6296 4.11111H30.1787L26.4547 0H14.2448ZM20.3498 30.8333C14.7332 30.8333 10.1749 26.2289 10.1749 20.5556C10.1749 14.8822 14.7332 10.2778 20.3498 10.2778C25.9663 10.2778 30.5247 14.8822 30.5247 20.5556C30.5247 26.2289 25.9663 30.8333 20.3498 30.8333Z" fill="white"/>
</g>
</g>
</g>
</svg>
