<svg width="46" height="47" viewBox="0 0 46 47" fill="none" xmlns="http://www.w3.org/2000/svg">
<g id="song-icon">
<path id="note-dark" d="M44.8441 7.18057C44.687 7.04311 44.4798 6.98056 44.2703 7.00529L21.7245 9.92242C21.3624 9.96969 21.0911 10.2773 21.0911 10.6432V15.0192V18.0825V36.5439C19.7631 34.9475 17.6532 33.9089 15.2728 33.9089C11.2626 33.9089 8 36.845 8 40.4545C8 44.064 11.2626 47 15.2728 47C19.2831 47 22.5456 44.064 22.5456 40.4545C22.5456 40.2857 22.5318 40.1199 22.5173 39.9548C22.5267 39.9075 22.5456 39.8646 22.5456 39.8152V18.7218L43.6368 15.9923V29.2703C42.3088 27.6747 40.199 26.6361 37.8186 26.6361C33.8083 26.6361 30.5458 29.5721 30.5458 33.1816C30.5458 36.7911 33.8083 39.7272 37.8186 39.7272C41.7924 39.7272 45.0281 36.8428 45.0863 33.2784C45.0863 33.2689 45.0914 33.2609 45.0914 33.2515V15.1647V12.1021V7.72675C45.0914 7.5173 45.0012 7.31802 44.8441 7.18057Z" fill="white"/>
</g>
</svg>
