<svg width="26" height="28" viewBox="0 0 26 28" fill="none" xmlns="http://www.w3.org/2000/svg">
<path opacity="0.75" d="M17.1429 14.8571C17.1429 14.9777 17.0893 15.0848 17.0089 15.1786L12.308 19.8795C12.2277 19.9598 12.1071 20 12 20C11.8795 20 11.7723 19.9598 11.692 19.8795L6.97768 15.1652C6.89732 15.0848 6.85714 14.9643 6.85714 14.8571C6.85714 14.6295 7.04464 14.4286 7.28571 14.4286H10.2857V9.71428C10.2857 9.48661 10.4866 9.28571 10.7143 9.28571H13.2857C13.5134 9.28571 13.7143 9.48661 13.7143 9.71428V14.4286H16.7143C16.9554 14.4286 17.1429 14.6161 17.1429 14.8571ZM25.7143 17.8571C25.7143 15.4732 24.067 13.3973 21.7366 12.8482C22.0982 12.2991 22.2857 11.6562 22.2857 11C22.2857 9.11161 20.7455 7.57143 18.8571 7.57143C18.0402 7.57143 17.25 7.86607 16.6339 8.40178C15.5759 5.83036 13.0714 4.14286 10.2857 4.14286C6.49554 4.14286 3.42857 7.20982 3.42857 11C3.42857 11.1875 3.44196 11.375 3.45536 11.5759C1.35268 12.5536 0 14.6696 0 17C0 20.308 2.69196 23 6 23H20.5714C23.4107 23 25.7143 20.6964 25.7143 17.8571Z" fill="#7CFC00"/>
</svg>
