<svg width="22" height="20" viewBox="0 0 22 20" fill="none" xmlns="http://www.w3.org/2000/svg">
<g opacity="0.75">
<path d="M11 14.6667C12.944 14.6667 14.52 13.0748 14.52 11.1111C14.52 9.14742 12.944 7.55554 11 7.55554C9.05594 7.55554 7.47998 9.14742 7.47998 11.1111C7.47998 13.0748 9.05594 14.6667 11 14.6667Z" fill="white"/>
<path d="M7.7 0L5.687 2.22222H2.2C0.99 2.22222 0 3.22222 0 4.44444V17.7778C0 19 0.99 20 2.2 20H19.8C21.01 20 22 19 22 17.7778V4.44444C22 3.22222 21.01 2.22222 19.8 2.22222H16.313L14.3 0H7.7ZM11 16.6667C7.964 16.6667 5.5 14.1778 5.5 11.1111C5.5 8.04445 7.964 5.55556 11 5.55556C14.036 5.55556 16.5 8.04445 16.5 11.1111C16.5 14.1778 14.036 16.6667 11 16.6667Z" fill="white"/>
</g>
</svg>
