<svg width="44" height="44" viewBox="0 0 44 44" fill="none" xmlns="http://www.w3.org/2000/svg">
<rect opacity="0.75" width="44" height="44" rx="2" fill="white"/>
<path d="M35.6331 7.13542C35.5153 7.03233 35.3598 6.98542 35.2027 7.00397L18.2934 9.19182C18.0218 9.22727 17.8183 9.458 17.8183 9.73237V13.0144V15.3119V29.1579C16.8223 27.9606 15.2399 27.1817 13.4546 27.1817C10.4469 27.1817 8 29.3837 8 32.0908C8 34.798 10.4469 37 13.4546 37C16.4623 37 18.9092 34.798 18.9092 32.0908C18.9092 31.9643 18.8989 31.8399 18.888 31.7161C18.8951 31.6807 18.9092 31.6485 18.9092 31.6114V15.7914L34.7276 13.7442V23.7027C33.7316 22.506 32.1492 21.7271 30.3639 21.7271C27.3563 21.7271 24.9093 23.9291 24.9093 26.6362C24.9093 29.3434 27.3563 31.5454 30.3639 31.5454C33.3443 31.5454 35.7711 29.3821 35.8147 26.7088C35.8147 26.7017 35.8186 26.6957 35.8186 26.6886V13.1235V10.8266V7.54507C35.8186 7.38797 35.7509 7.23852 35.6331 7.13542Z" fill="#0D4E67"/>
</svg>
