<svg width="23" height="28" viewBox="0 0 23 28" fill="none" xmlns="http://www.w3.org/2000/svg">
<path opacity="0.75" d="M10.2857 7.14286C10.2857 6.67411 9.89732 6.28571 9.42857 6.28571C9.20089 6.28571 8.98661 6.37946 8.82589 6.54018L4.36607 11H0.857143C0.388393 11 0 11.3884 0 11.8571V17C0 17.4687 0.388393 17.8571 0.857143 17.8571H4.36607L8.82589 22.317C8.98661 22.4777 9.20089 22.5714 9.42857 22.5714C9.89732 22.5714 10.2857 22.183 10.2857 21.7143V7.14286ZM15.4286 14.4286C15.4286 13.0893 14.6116 11.7768 13.3527 11.2812C13.2455 11.2277 13.125 11.2143 13.0179 11.2143C12.5491 11.2143 12.1607 11.5893 12.1607 12.0714C12.1607 13.0893 13.7143 12.808 13.7143 14.4286C13.7143 16.0491 12.1607 15.7679 12.1607 16.7857C12.1607 17.2679 12.5491 17.6429 13.0179 17.6429C13.125 17.6429 13.2455 17.6295 13.3527 17.5759C14.6116 17.067 15.4286 15.7679 15.4286 14.4286ZM18.8571 14.4286C18.8571 11.7098 17.2232 9.17857 14.7054 8.12053C14.5982 8.08036 14.4777 8.05357 14.3571 8.05357C13.8884 8.05357 13.5 8.44196 13.5 8.91071C13.5 9.28571 13.7143 9.54018 14.0223 9.70089C14.3839 9.88839 14.7188 10.0491 15.0402 10.2902C16.3661 11.2545 17.1429 12.7946 17.1429 14.4286C17.1429 16.0625 16.3661 17.6027 15.0402 18.567C14.7188 18.808 14.3839 18.9687 14.0223 19.1562C13.7143 19.317 13.5 19.5714 13.5 19.9464C13.5 20.4152 13.8884 20.8036 14.3705 20.8036C14.4777 20.8036 14.5982 20.7768 14.7054 20.7366C17.2232 19.6786 18.8571 17.1473 18.8571 14.4286ZM22.2857 14.4286C22.2857 10.317 19.8348 6.59375 16.058 4.97321C15.9509 4.93303 15.8304 4.90625 15.7098 4.90625C15.2411 4.90625 14.8527 5.29464 14.8527 5.76339C14.8527 6.15178 15.0536 6.36607 15.375 6.55357C15.5625 6.66071 15.7768 6.72768 15.9777 6.83482C16.3527 7.03571 16.7277 7.26339 17.0759 7.51786C19.2723 9.13839 20.5714 11.6964 20.5714 14.4286C20.5714 17.1607 19.2723 19.7188 17.0759 21.3393C16.7277 21.5937 16.3527 21.8214 15.9777 22.0223C15.7768 22.1295 15.5625 22.1964 15.375 22.3036C15.0536 22.4911 14.8527 22.7054 14.8527 23.0938C14.8527 23.5625 15.2411 23.9509 15.7098 23.9509C15.8304 23.9509 15.9509 23.9241 16.058 23.8839C19.8348 22.2634 22.2857 18.5402 22.2857 14.4286Z" fill="white"/>
</svg>
